<svg width="26" height="24" viewBox="0 0 26 24" fill="none" xmlns="http://www.w3.org/2000/svg">
<g clip-path="url(#clip0_67_10)">
<path d="M4.66877 20.9381C4.56706 20.8941 4.49361 20.8447 4.61227 20.7457C4.68572 20.6907 4.76482 20.6413 4.84392 20.5918C5.5841 20.1246 6.27908 19.6133 6.73674 18.8602C7.12096 18.2336 7.0588 17.8653 6.57854 17.4035C3.90034 14.7979 2.7251 11.6811 3.31272 7.99812C3.64608 5.92025 4.62357 4.12272 6.04742 2.56157C6.90625 1.61608 7.92894 0.851994 9.04768 0.214339C9.11548 0.17586 9.21153 0.164866 9.22283 0.0659197C9.20023 0.0109495 9.16068 0.0274405 9.12678 0.0274405C7.22266 0.0274405 5.31854 -0.0110386 3.42007 0.0384346C1.60071 0.0934048 0.0299485 1.46216 0.0355987 3.4246C0.0468991 9.158 0.0355987 14.8914 0.0355987 20.6303C0.0355987 22.4113 1.4312 23.901 3.25622 23.967C4.79872 24.0274 6.34123 23.978 7.88939 23.9725C8.00239 23.978 8.11539 23.9835 8.2284 23.9835H16.3873C18.4214 23.9835 20.4554 23.9945 22.4895 23.9835C24.3767 23.9835 25.9079 22.4993 25.9079 20.6688V20.6358V17.42C25.9079 17.3431 25.9361 17.2606 25.8853 17.1782C25.7836 17.1836 25.744 17.2661 25.6875 17.3211C24.5914 18.393 23.2975 19.256 21.8793 19.8662C18.4044 21.3559 14.8674 21.4603 11.2795 20.262C10.9687 20.152 10.6297 20.141 10.3077 20.218C9.83306 20.3334 9.36409 20.4709 8.89512 20.6083C7.51647 21.0261 6.10957 21.213 4.66877 20.9381ZM8.76517 11.6756C8.86122 11.5547 8.91207 11.4832 8.96857 11.4118C9.70875 10.4993 10.4489 9.58676 11.1891 8.66876C11.4038 8.4049 11.6185 8.13555 11.7541 7.81672C11.9123 7.45392 11.7428 7.1131 11.3586 6.98117C11.1891 6.9317 11.0083 6.90971 10.8275 6.92071C9.82176 6.91521 8.81037 6.91521 7.80463 6.92071C7.66338 6.92071 7.52212 6.9372 7.38652 6.97018C7.07011 7.04714 6.878 7.36047 6.9571 7.6738C7.0136 7.88269 7.18311 8.0476 7.39782 8.09707C7.53342 8.13005 7.67468 8.14654 7.81593 8.14105C8.42616 8.14654 9.04203 8.14105 9.65225 8.14654C9.72005 8.14654 9.8048 8.10257 9.85566 8.20151C9.8048 8.26748 9.75395 8.33344 9.7031 8.39391C8.82732 9.47132 7.95719 10.5542 7.08141 11.6317C6.8667 11.901 6.75369 12.1978 6.9119 12.5277C7.07011 12.8575 7.39217 12.918 7.71988 12.9399C7.97979 12.9564 8.24535 12.9454 8.51091 12.9454C9.42624 12.9454 10.3359 12.9509 11.2513 12.9399C11.7372 12.9344 11.9971 12.6486 11.9462 12.2088C11.9067 11.8625 11.6637 11.6811 11.2117 11.6756C10.415 11.6701 9.61835 11.6756 8.76517 11.6756ZM15.3194 8.7842C14.6131 8.18502 13.8334 8.14654 13.0706 8.5863C12.144 9.11402 11.805 9.97705 11.918 10.9775C12.0253 11.912 12.4435 12.6761 13.4492 12.9894C14.0764 13.1873 14.6583 13.1159 15.1725 12.7091C15.3081 12.6046 15.3477 12.6266 15.4437 12.7421C15.6302 12.9729 15.9522 13.0609 16.2347 12.9564C16.5172 12.874 16.7037 12.6211 16.7037 12.3353C16.7094 11.2359 16.715 10.1365 16.7037 9.03706C16.6981 8.5973 16.2743 8.31695 15.8336 8.4049C15.5906 8.45438 15.455 8.61379 15.3194 8.7842ZM19.235 10.8236C19.2124 12.1978 20.382 13.2368 21.851 13.0939C23.2014 12.9619 24.0772 11.978 24.032 10.5872C23.9868 9.21297 22.9359 8.27297 21.4951 8.31695C20.1447 8.35543 19.1898 9.41086 19.235 10.8236ZM18.7378 9.72968C18.7378 8.86665 18.7434 8.00912 18.7378 7.14608C18.7378 6.70632 18.4496 6.43147 18.0202 6.43697C17.6021 6.44247 17.3252 6.71732 17.3196 7.14059C17.3139 7.39895 17.3196 7.65181 17.3196 7.91017V12.2803C17.3196 12.6211 17.5343 12.918 17.8168 12.9894C18.2067 13.0939 18.6078 12.8685 18.7095 12.4892C18.7265 12.4232 18.7378 12.3573 18.7321 12.2858C18.7434 11.4338 18.7378 10.5817 18.7378 9.72968Z" fill="#0B1978"/>
<path d="M7.88372 23.978C6.34122 23.978 4.79306 24.0274 3.25055 23.9725C1.42554 23.901 0.0299377 22.4113 0.0299377 20.6358C0.0299377 14.9024 0.0412382 9.16898 0.0299377 3.43009C0.0299377 1.46765 1.60635 0.0988941 3.42006 0.0494209C5.31853 -5.23068e-05 7.22265 0.0384268 9.12677 0.0384268C9.16067 0.0384268 9.20587 0.0219358 9.22282 0.076906C9.21152 0.175852 9.10982 0.186846 9.04767 0.225326C7.92893 0.86298 6.90624 1.62707 6.04741 2.57255C4.62921 4.13371 3.64607 5.92574 3.31271 8.00911C2.72509 11.6866 3.90598 14.8089 6.57853 17.4145C7.05314 17.8818 7.1153 18.2446 6.73673 18.8712C6.27906 19.6243 5.58409 20.1355 4.84391 20.6028C4.76481 20.6468 4.68571 20.7017 4.6066 20.7512C4.48795 20.8502 4.5614 20.8996 4.66311 20.9436C4.68571 20.9931 4.71396 21.0371 4.74786 21.081C5.39763 21.6417 6.01351 22.2409 6.65198 22.8126C6.95144 23.0819 7.2509 23.3623 7.53906 23.6426C7.65771 23.7471 7.85547 23.7801 7.88372 23.978Z" fill="white"/>
<path d="M7.88373 23.978C7.85548 23.7856 7.65773 23.7527 7.53907 23.6372C7.25091 23.3514 6.95145 23.0765 6.65199 22.8072C6.01352 22.2355 5.39764 21.6363 4.74787 21.0756C4.71397 21.0316 4.68572 20.9877 4.66312 20.9382C6.10392 21.213 7.51082 21.0261 8.89512 20.6139C9.36409 20.4764 9.83306 20.339 10.3077 20.2236C10.6297 20.1411 10.9687 20.1576 11.2795 20.2675C14.8617 21.4659 18.3988 21.356 21.8793 19.8718C23.2975 19.2616 24.5914 18.404 25.6875 17.3321C25.744 17.2772 25.7836 17.1947 25.8853 17.1892C25.9361 17.2662 25.9079 17.3486 25.9079 17.4311V20.6468C25.9192 22.4828 24.4049 23.978 22.5178 23.9945H22.4895C20.4554 24.0055 18.4214 23.9945 16.3873 23.9945H8.22275C8.10974 23.9835 7.99674 23.978 7.88373 23.978Z" fill="white"/>
<path d="M8.76516 11.6757C9.61834 11.6757 10.4207 11.6702 11.2174 11.6757C11.6637 11.6812 11.9067 11.8626 11.9519 12.2089C12.0027 12.6431 11.7428 12.9345 11.2569 12.94C10.3416 12.951 9.43189 12.9455 8.51655 12.9455C8.25099 12.9455 7.99108 12.9565 7.72552 12.94C7.39781 12.9235 7.07575 12.8575 6.91754 12.5277C6.75934 12.1979 6.87234 11.901 7.08705 11.6317C7.95718 10.5543 8.83296 9.47136 9.70875 8.39395C9.7596 8.32798 9.81045 8.26202 9.8613 8.20155C9.8048 8.1081 9.7257 8.15208 9.65789 8.14658C9.04767 8.14108 8.4318 8.14658 7.82158 8.14108C7.68032 8.14108 7.53907 8.12459 7.40346 8.09711C7.0814 8.02565 6.88364 7.71232 6.9571 7.40448C7.00795 7.1956 7.17745 7.02519 7.39216 6.97572C7.52777 6.94273 7.66902 6.92624 7.81028 6.92624C8.81601 6.92074 9.8274 6.92074 10.8331 6.92624C11.0139 6.92074 11.1891 6.94273 11.3643 6.98671C11.7485 7.11314 11.9123 7.45945 11.7598 7.82226C11.6242 8.13559 11.4095 8.40494 11.1948 8.6743C10.4546 9.5923 9.7144 10.5048 8.97422 11.4118C8.91207 11.4833 8.85557 11.5547 8.76516 11.6757Z" fill="white"/>
<path d="M15.3194 8.7842C15.455 8.61379 15.5963 8.45437 15.8279 8.4104C16.2743 8.32245 16.6924 8.60279 16.6981 9.04256C16.715 10.142 16.7094 11.2414 16.6981 12.3408C16.6981 12.6266 16.506 12.8795 16.2291 12.9619C15.9466 13.0664 15.6245 12.9839 15.4381 12.7475C15.342 12.6321 15.3025 12.6101 15.1669 12.7146C14.6527 13.1213 14.0707 13.1928 13.4436 12.9949C12.4378 12.6761 12.0254 11.912 11.9123 10.983C11.7937 9.97705 12.1384 9.11951 13.065 8.5918C13.8334 8.14654 14.6131 8.18502 15.3194 8.7842ZM13.3192 10.7906C13.3305 11.0325 13.4097 11.2634 13.5566 11.4557C13.8617 11.8515 14.4436 11.934 14.8561 11.6371C14.9239 11.5877 14.9861 11.5272 15.0426 11.4557C15.359 11.038 15.359 10.3508 15.0426 9.93307C14.8844 9.71869 14.6357 9.59226 14.3702 9.58676C13.7487 9.54828 13.3136 10.0155 13.3192 10.7906ZM19.235 10.8236C19.1898 9.41086 20.1447 8.35543 21.5007 8.31695C22.9416 8.27297 23.9925 9.21296 24.0377 10.5872C24.0829 11.978 23.2071 12.9619 21.8567 13.0939C20.382 13.2368 19.2124 12.1978 19.235 10.8236ZM20.6532 10.6917C20.6419 10.9665 20.7267 11.2359 20.8962 11.4612C21.2069 11.857 21.7889 11.934 22.1957 11.6262C22.2579 11.5822 22.3087 11.5272 22.3596 11.4722C22.6873 11.0545 22.6873 10.3508 22.3652 9.93307C22.207 9.72419 21.9584 9.59226 21.6929 9.58676C21.0826 9.55378 20.6532 10.0045 20.6532 10.6917ZM18.7378 9.72968C18.7378 10.5817 18.7434 11.4338 18.7378 12.2858C18.7434 12.6761 18.427 13.0004 18.0259 13.0114C17.9581 13.0114 17.8846 13.0059 17.8168 12.9894C17.5343 12.918 17.3196 12.6266 17.3196 12.2803V7.91017C17.3196 7.65181 17.3139 7.39895 17.3196 7.14059C17.3252 6.71731 17.6021 6.44246 18.0202 6.44246C18.4496 6.43697 18.7378 6.71182 18.7378 7.15158C18.7434 8.00912 18.7378 8.87215 18.7378 9.72968Z" fill="white"/>
<path d="M13.3192 10.7906C13.3136 10.0155 13.7487 9.54825 14.3645 9.58123C14.6301 9.59222 14.8787 9.71865 15.0369 9.93304C15.3533 10.3453 15.3533 11.0379 15.0369 11.4557C14.7318 11.8515 14.1498 11.934 13.7374 11.6371C13.6696 11.5876 13.6074 11.5272 13.5509 11.4557C13.4096 11.2633 13.3305 11.0324 13.3192 10.7906ZM20.6532 10.6916C20.6532 10.01 21.0826 9.55374 21.6928 9.58672C21.9584 9.59222 22.207 9.72415 22.3652 9.93304C22.6873 10.3508 22.6873 11.0599 22.3596 11.4722C22.0432 11.8625 21.4555 11.9285 21.0544 11.6206C20.9922 11.5766 20.9414 11.5217 20.8962 11.4612C20.7267 11.2358 20.6476 10.9665 20.6532 10.6916Z" fill="#0B1978"/>
</g>
<defs>
<clipPath id="clip0_67_10">
<rect width="26" height="24" fill="white"/>
</clipPath>
</defs>
</svg>
