<svg width="602" height="448" viewBox="0 0 602 448" fill="none" xmlns="http://www.w3.org/2000/svg">
<path d="M602 393.703H0V394.004H602V393.703Z" fill="#EBEBEB"/>
<path d="M541.68 413.049H515.577V413.349H541.68V413.049Z" fill="#EBEBEB"/>
<path d="M414.983 406.809H373.914V407.109H414.983V406.809Z" fill="#EBEBEB"/>
<path d="M531.108 401.891H477.494V402.191H531.108V401.891Z" fill="#EBEBEB"/>
<path d="M208.316 407.951H194.903V408.252H208.316V407.951Z" fill="#EBEBEB"/>
<path d="M184.176 407.951H137.954V408.252H184.176V407.951Z" fill="#EBEBEB"/>
<path d="M113.188 402.877H79.8369V403.178H113.188V402.877Z" fill="#EBEBEB"/>
<path d="M260.148 175.455L260.69 159.657L250.973 156.483C250.576 151.084 249.673 145.758 248.385 140.612L256.62 134.552L251.021 119.715L240.836 120.533C238.404 115.736 235.55 111.167 232.359 106.886L237.633 98.0974L226.785 86.543L217.683 91.1961C213.577 87.7213 209.255 84.5592 204.631 81.7818L206.1 71.6943L191.652 65.1416L185.03 72.8846C179.985 71.2494 174.76 70.023 169.354 69.2175L166.898 59.3223L151.029 58.7812L147.899 68.484C142.445 68.9289 137.159 69.7826 132.006 71.0691L125.89 62.8932L111.032 68.436L111.851 78.6077C107.047 81.0724 102.472 83.922 98.1857 87.1081L89.4206 81.8419L77.802 92.6268L82.4615 101.765C78.9819 105.816 75.8154 110.181 73.0703 114.798L62.9687 113.283L56.3708 127.711L64.1727 134.324C62.5353 139.361 61.2711 144.616 60.5005 149.978L50.5555 152.479L50.0137 168.277L59.7661 171.452C60.1634 176.886 61.0664 182.176 62.3547 187.31L54.1193 193.37L59.7179 208.207L69.9038 207.389C72.3358 212.186 75.1893 216.755 78.3799 221.036L73.1064 229.825L83.9544 241.379L93.0567 236.726C97.1142 240.201 101.485 243.363 106.108 246.152L104.591 256.24L119.039 262.793L125.697 255.05C130.742 256.685 135.967 257.911 141.373 258.717L143.829 268.612L159.698 269.153L162.828 259.45C168.271 259.005 173.568 258.152 178.709 256.865L184.777 265.041L199.635 259.498L198.852 249.326C203.656 246.862 208.183 244.012 212.518 240.814L221.283 246.08L232.901 235.295L228.242 226.158C231.721 222.106 234.888 217.741 237.633 213.124L247.735 214.639L254.332 200.211L246.531 193.598C248.168 188.561 249.432 183.343 250.203 177.944L260.148 175.455ZM153.245 226.638C118.594 225.448 91.4674 196.436 92.6473 161.833C93.8393 127.194 122.892 100.093 157.543 101.284C192.194 102.474 219.32 131.486 218.14 166.125C216.948 200.728 187.884 227.817 153.245 226.638Z" fill="#EBEBEB"/>
<path d="M530.915 123.202L534.9 119.487L533.311 116.349C534.527 114.93 535.611 113.416 536.55 111.853L540.042 112.382L542.305 107.404L539.62 105.119C540.198 103.364 540.619 101.549 540.884 99.733L544.316 98.8794L544.496 93.4208L541.137 92.3387C540.993 90.4871 540.704 88.6716 540.258 86.8681L543.088 84.764L541.161 79.6541L537.658 79.9307C536.827 78.3075 535.852 76.7325 534.732 75.2175L536.55 72.2117L532.818 68.22L529.687 69.8191C528.254 68.6047 526.749 67.5226 525.184 66.5848L525.69 63.098L520.717 60.8256L518.43 63.5068C516.66 62.9417 514.842 62.5209 513.024 62.2564L512.169 58.8418L506.703 58.6494L505.607 62.0159C503.765 62.1602 501.935 62.4488 500.129 62.9057L498.034 60.0802L492.905 61.9919L493.194 65.5027C491.569 66.3323 489.967 67.3062 488.474 68.4244L485.44 66.6088L481.455 70.324L483.056 73.4741C481.828 74.8929 480.757 76.4078 479.817 77.9708L476.326 77.4418L474.062 82.4195L476.747 84.7039C476.169 86.4593 475.748 88.2748 475.483 90.0903L472.052 90.944L471.871 96.4026L475.23 97.4847C475.375 99.3242 475.664 101.152 476.109 102.955L473.28 105.047L475.206 110.157L478.722 109.893C479.553 111.516 480.528 113.091 481.648 114.606L479.83 117.612L483.562 121.603L486.692 120.004C488.125 121.219 489.63 122.301 491.195 123.239L490.678 126.713L495.65 128.986L497.938 126.317C499.708 126.882 501.514 127.29 503.344 127.567L504.198 130.982L509.665 131.174L510.76 127.807C512.602 127.663 514.432 127.375 516.238 126.918L518.333 129.743L523.462 127.831L523.174 124.321C524.799 123.491 526.388 122.529 527.893 121.399L530.915 123.202ZM502.477 100.202C499.539 97.0638 499.708 92.1343 502.85 89.2126C505.992 86.2789 510.929 86.4473 513.867 89.5854C516.804 92.7234 516.636 97.653 513.481 100.587C510.339 103.508 505.415 103.34 502.477 100.202Z" fill="#EBEBEB"/>
<path d="M385.268 285.408L372.818 276.824C372.818 276.812 372.818 276.8 372.806 276.8C371.578 272.279 369.881 267.938 367.798 263.851L370.988 251.346L352.928 232.037L340.214 234.357C336.277 232.013 332.051 230.017 327.632 228.49C327.62 228.49 327.608 228.49 327.596 228.478L319.867 215.481L293.427 214.579L284.83 227.011C284.818 227.011 284.794 227.023 284.782 227.023C280.267 228.25 275.908 229.945 271.827 232.013L259.317 228.827L239.981 246.862L242.305 259.534C242.305 259.534 242.305 259.546 242.293 259.546C239.897 263.526 237.946 267.746 236.417 272.159L223.402 279.878L222.499 306.293L234.96 314.889C236.188 319.434 237.838 323.775 239.957 327.899L236.778 340.367L254.838 359.676L267.468 357.368C271.454 359.724 275.692 361.708 280.171 363.247H280.183L287.9 376.22L314.34 377.122L322.937 364.702C327.512 363.476 331.87 361.78 336 359.7L348.462 362.874L367.798 344.839L365.474 332.167C367.87 328.187 369.82 323.967 371.35 319.542L384.365 311.824L385.268 285.408ZM302.854 325.554C286.419 324.989 273.573 311.21 274.139 294.835C274.704 278.423 288.454 265.594 304.901 266.159C321.335 266.724 334.182 280.455 333.616 296.879C333.05 313.242 319.289 326.119 302.854 325.554Z" fill="#EBEBEB"/>
<path d="M413.633 210.407C413.609 210.407 413.573 210.407 413.549 210.407L392.696 209.698C391.829 209.674 391.034 209.205 390.601 208.459L384.99 199.021C382.004 197.939 379.067 196.58 376.225 194.957L367.183 196.604C366.328 196.761 365.461 196.472 364.871 195.835L350.628 180.613C350.038 179.976 349.809 179.086 350.026 178.257L352.302 169.348C350.917 166.522 349.761 163.516 348.858 160.366L339.792 154.114C339.082 153.621 338.66 152.804 338.696 151.938L339.407 131.114C339.431 130.248 339.9 129.454 340.647 129.021L350.122 123.407C351.242 120.341 352.603 117.407 354.18 114.69L352.518 105.636C352.362 104.782 352.651 103.917 353.289 103.328L368.544 89.1041C369.182 88.515 370.073 88.2865 370.903 88.5029L379.849 90.7874C382.751 89.3806 385.749 88.2264 388.819 87.3367L395.08 78.2831C395.573 77.5738 396.38 77.1289 397.259 77.189L418.112 77.8984C418.979 77.9224 419.774 78.3913 420.207 79.1368L425.83 88.5991C428.816 89.6932 431.742 91.0519 434.535 92.651L443.625 90.9918C444.48 90.8355 445.347 91.124 445.937 91.7612L460.18 106.995C460.77 107.632 460.999 108.522 460.782 109.351L458.494 118.297C459.903 121.194 461.059 124.188 461.95 127.254L471.004 133.506C471.714 133.999 472.124 134.817 472.1 135.682L471.389 156.507C471.365 157.372 470.896 158.166 470.149 158.599L460.674 164.214C459.554 167.28 458.193 170.201 456.616 172.919L458.278 181.984C458.434 182.838 458.145 183.703 457.507 184.293L442.265 198.504C441.626 199.093 440.748 199.322 439.905 199.105L430.995 196.833C428.057 198.252 425.035 199.406 421.977 200.284L415.728 209.325C415.247 209.998 414.464 210.407 413.633 210.407ZM394.261 204.672L412.333 205.285L418.317 196.628C418.654 196.135 419.172 195.775 419.75 195.618C423.073 194.729 426.384 193.466 429.562 191.855C429.562 191.855 429.574 191.855 429.574 191.843C430.104 191.579 430.73 191.507 431.332 191.663L439.808 193.815L453.028 181.491L451.451 172.87C451.343 172.257 451.451 171.632 451.776 171.103C453.522 168.217 455.003 165.043 456.171 161.689C456.363 161.088 456.773 160.595 457.303 160.282L466.357 154.908L466.971 136.861L458.302 130.885C457.844 130.572 457.507 130.116 457.339 129.599C457.315 129.538 457.303 129.466 457.278 129.394C456.375 126.076 455.111 122.817 453.534 119.715C453.257 119.162 453.185 118.537 453.341 117.936L455.509 109.423L443.168 96.2219L434.511 97.809C433.909 97.9172 433.283 97.809 432.753 97.4964C429.743 95.7049 426.564 94.226 423.302 93.0838C423.121 93.0237 422.928 92.9395 422.772 92.8313C422.423 92.6149 422.134 92.3143 421.917 91.9656L416.535 82.9121L398.463 82.2989L392.479 90.9557C392.118 91.4727 391.588 91.8334 390.986 91.9777C387.639 92.8914 384.388 94.1419 381.294 95.7169C380.74 95.9935 380.114 96.0656 379.512 95.9093L370.988 93.7451L357.768 106.069L359.345 114.69C359.441 115.231 359.369 115.796 359.116 116.277C359.08 116.349 359.044 116.409 358.996 116.481C357.25 119.379 355.769 122.565 354.601 125.931C354.409 126.497 354.011 126.977 353.494 127.278L344.428 132.652L343.813 150.699L352.494 156.687C352.988 157.024 353.349 157.529 353.506 158.118C354.445 161.581 355.697 164.863 357.25 167.881C357.334 168.049 357.407 168.241 357.455 168.422C357.551 168.831 357.551 169.251 357.455 169.66L355.288 178.137L367.629 191.338L376.225 189.763C376.827 189.655 377.453 189.763 377.971 190.076C381.029 191.879 384.232 193.37 387.471 194.488C388.06 194.669 388.566 195.065 388.879 195.606L394.261 204.672ZM405.422 181.864C404.977 181.864 404.531 181.852 404.086 181.84C383.076 181.118 366.581 163.468 367.291 142.5C368.014 121.519 385.713 105.047 406.686 105.756C427.696 106.478 444.191 124.128 443.481 145.097C443.131 155.244 438.845 164.658 431.404 171.596C424.289 178.245 415.102 181.864 405.422 181.864ZM405.374 110.818C387.675 110.818 372.986 124.885 372.372 142.68C371.746 160.859 386.05 176.153 404.254 176.778C413.08 177.079 421.484 173.928 427.937 167.905C434.378 161.893 438.099 153.729 438.4 144.94C439.026 126.761 424.722 111.467 406.518 110.842C406.133 110.818 405.759 110.818 405.374 110.818Z" fill="#EBEBEB"/>
<path d="M461.661 60.5609L453.029 58.2405L450.705 49.6198L454.088 46.2412L457.652 53.6235L465.045 57.1824L461.661 60.5609Z" fill="#E0E0E0"/>
<path d="M462.191 54.7904C463.768 53.2153 463.768 50.6544 462.191 49.0913C460.614 47.5163 458.061 47.5283 456.496 49.1034L460.794 42.6709L466.562 45.5805L467.826 51.6283L462.191 54.7904Z" fill="#E0E0E0"/>
<path d="M453.402 46.9268L459.735 40.6025L468.368 42.923L470.692 51.5437L464.359 57.868L455.726 55.5475L453.402 46.9268ZM464.901 52.0968C466.478 50.5218 466.478 47.9608 464.901 46.3978C463.323 44.8227 460.771 44.8347 459.206 46.4098C457.628 47.9848 457.628 50.5218 459.206 52.0848C460.771 53.6478 463.323 53.6598 464.901 52.0968Z" fill="#F0F0F0"/>
<path d="M108.625 290.675L113.26 289.425L114.5 284.796L112.694 282.992L110.78 286.948L106.807 288.86L108.625 290.675Z" fill="#E0E0E0"/>
<path d="M108.335 287.573C107.492 286.731 107.492 285.361 108.335 284.507C109.178 283.665 110.551 283.665 111.393 284.519L109.094 281.068L105.999 282.631L105.325 285.878L108.335 287.573Z" fill="#E0E0E0"/>
<path d="M113.055 283.352L109.66 279.962L105.024 281.2L103.784 285.829L107.179 289.22L111.815 287.981L113.055 283.352ZM106.891 286.13C106.048 285.288 106.048 283.918 106.891 283.064C107.733 282.222 109.106 282.222 109.949 283.076C110.791 283.918 110.791 285.276 109.949 286.13C109.106 286.959 107.733 286.971 106.891 286.13Z" fill="#F0F0F0"/>
<path d="M91.9374 36.9234L95.7782 40.7589C96.7775 41.7568 98.415 41.7568 99.4263 40.7589C100.426 39.7609 100.426 38.1258 99.4263 37.1278L95.5856 33.2924C94.5862 32.2945 92.9488 32.2945 91.9495 33.2924C90.9381 34.2903 90.9381 35.9255 91.9374 36.9234Z" fill="#F0F0F0"/>
<path d="M89.2275 27.3525C92.1893 26.2945 95.404 27.6772 96.4033 30.4545C97.4027 33.2319 95.8134 36.346 92.8515 37.416C89.8897 38.4741 86.675 37.0914 85.6757 34.314C84.6764 31.5366 86.2656 28.4226 89.2275 27.3525Z" fill="#E0E0E0"/>
<path d="M85.045 33.6666L85.6025 35.2168L97.0467 31.1123L96.4892 29.5621L85.045 33.6666Z" fill="#F0F0F0"/>
<path d="M301 448C429.927 448 534.444 441.906 534.444 434.39C534.444 426.873 429.927 420.779 301 420.779C172.073 420.779 67.5566 426.873 67.5566 434.39C67.5566 441.906 172.073 448 301 448Z" fill="#F5F5F5"/>
<path d="M104.411 78.9808C103.207 73.6906 103.749 69.2299 106.025 65.6109C108.312 61.9919 112.081 59.5872 117.354 58.3849C122.76 57.1585 127.251 57.6635 130.839 59.8998C134.427 62.1362 136.811 65.8634 138.003 71.0815C138.87 74.8688 138.93 78.1272 138.208 80.8444C137.485 83.5617 136.064 85.8702 133.957 87.7698C131.85 89.6695 128.997 91.0282 125.385 91.8457C121.725 92.6753 118.558 92.7836 115.898 92.1583C113.237 91.5331 110.865 90.1384 108.806 87.9502C106.735 85.762 105.266 82.7802 104.411 78.9808ZM114.453 76.7565C115.199 80.0268 116.343 82.2512 117.884 83.3934C119.425 84.5476 121.243 84.8842 123.35 84.4033C125.505 83.9104 127.01 82.8403 127.877 81.1691C128.744 79.4978 128.756 76.8527 127.937 73.2217C127.239 70.1677 126.119 68.0757 124.566 66.9455C123.013 65.8153 121.183 65.4907 119.064 65.9716C117.041 66.4285 115.572 67.5106 114.681 69.2179C113.778 70.9372 113.694 73.4501 114.453 76.7565Z" fill="#263238"/>
<path d="M142.783 75.0135C141.964 71.4306 142.506 68.1963 144.396 65.3227C146.287 62.4492 149.297 60.5495 153.414 59.6117C158.122 58.5416 161.999 59.0947 165.021 61.2829C167.453 63.0383 169.042 65.5271 169.777 68.7494C170.595 72.3684 170.078 75.6026 168.199 78.4522C166.321 81.3017 163.263 83.2134 159.025 84.1753C155.244 85.0289 151.969 84.7764 149.2 83.3817C145.805 81.6624 143.662 78.873 142.783 75.0135ZM151.825 72.9455C152.307 75.0376 153.077 76.4924 154.161 77.2979C155.232 78.1035 156.424 78.368 157.7 78.0795C159.001 77.7789 159.952 77.0454 160.566 75.8672C161.18 74.6889 161.228 73.0056 160.735 70.8294C160.265 68.7975 159.506 67.3667 158.435 66.5732C157.363 65.7676 156.208 65.5031 154.967 65.7916C153.655 66.0922 152.68 66.8377 152.054 68.052C151.428 69.2423 151.355 70.8775 151.825 72.9455Z" fill="#263238"/>
<path d="M178.891 88.5037L171.511 56.0648L179.951 54.1531L180.745 57.6278C181.576 55.9085 182.431 54.6701 183.286 53.9367C184.442 52.9508 185.814 52.2654 187.416 51.9047C190.558 51.1954 193.267 51.8446 195.531 53.8525C197.794 55.8604 199.335 58.6378 200.142 62.1847C201.033 66.0922 200.768 69.2904 199.371 71.7672C197.963 74.256 195.832 75.8191 192.966 76.4683C191.581 76.7809 190.257 76.829 189.005 76.6246C187.753 76.4082 186.573 75.9393 185.453 75.2179L188.006 86.4356L178.891 88.5037ZM183.238 65.8397C183.659 67.7034 184.369 68.9898 185.357 69.7112C186.344 70.4326 187.44 70.6611 188.632 70.3845C189.679 70.1441 190.462 69.5189 190.979 68.4969C191.497 67.4749 191.509 65.9239 191.04 63.8679C190.606 61.9682 189.92 60.6577 188.981 59.9243C188.042 59.2029 187.042 58.9624 185.971 59.2029C184.815 59.4674 183.96 60.1287 183.394 61.2108C182.828 62.2688 182.78 63.8198 183.238 65.8397Z" fill="#263238"/>
<path d="M203.994 66.5489L212.748 63.6753C213.362 64.6492 214.048 65.2984 214.818 65.599C215.589 65.8996 216.528 65.9357 217.636 65.6832C218.852 65.4067 219.731 64.9377 220.273 64.2765C220.706 63.7715 220.85 63.2425 220.718 62.6653C220.574 62.0161 220.116 61.5953 219.357 61.3909C218.816 61.2466 217.455 61.2346 215.264 61.3428C212.013 61.5111 209.713 61.4991 208.389 61.3067C207.065 61.1143 205.861 60.5613 204.777 59.6475C203.693 58.7337 202.983 57.5675 202.67 56.1487C202.321 54.5977 202.465 53.1669 203.116 51.8444C203.766 50.5218 204.813 49.4037 206.27 48.4899C207.727 47.5761 209.786 46.8186 212.434 46.2175C215.24 45.5802 217.359 45.3278 218.792 45.448C220.224 45.5682 221.489 45.989 222.584 46.6744C223.68 47.3717 224.703 48.4177 225.642 49.8245L217.287 52.6018C216.889 51.8925 216.396 51.4356 215.806 51.1951C214.987 50.8825 214.084 50.8464 213.073 51.0749C212.049 51.3033 211.351 51.652 210.966 52.1209C210.58 52.5898 210.448 53.0828 210.568 53.5998C210.701 54.1769 211.098 54.5376 211.748 54.7059C212.41 54.8622 213.747 54.8382 215.782 54.6218C218.852 54.2851 221.2 54.249 222.789 54.5135C224.39 54.7901 225.703 55.3913 226.738 56.3411C227.773 57.2909 228.436 58.4331 228.737 59.7677C229.05 61.1264 228.941 62.5331 228.412 63.9999C227.882 65.4668 226.822 66.7773 225.233 67.9436C223.644 69.0978 221.32 70.0236 218.286 70.7209C213.988 71.6948 210.785 71.779 208.69 70.9734C206.595 70.1559 205.03 68.689 203.994 66.5489Z" fill="#263238"/>
<path d="M233.396 36.8033L243.281 36.7432L243.329 44.3178L241.511 59.5514L235.395 59.5874L233.445 44.378L233.396 36.8033ZM233.878 61.92L243.101 61.8719L243.149 70.0116L233.926 70.0597L233.878 61.92Z" fill="#263238"/>
<path d="M154.931 140.229C154.859 140.229 154.787 140.216 154.714 140.192C149.296 138.1 146.058 136.044 144.372 133.592C143.144 133.832 141.783 133.676 140.483 133.063C139.219 132.461 138.003 131.415 137.136 129.913C136.317 130.538 135.318 130.706 134.21 130.369C132.982 129.985 131.718 128.963 130.658 127.472C129.984 127.953 129.298 128.025 128.792 127.989C125.216 127.7 120.364 120.582 120.015 112.996C120.003 112.659 120.256 112.383 120.593 112.371C120.918 112.346 121.207 112.611 121.219 112.948C121.544 120.15 126.168 126.57 128.889 126.786C129.334 126.835 129.695 126.69 130.008 126.45C128.371 123.588 127.528 119.5 128.78 115.136C129.816 111.529 130.731 110.11 131.826 110.375C133.897 110.892 133.632 118.755 132.525 123.949C132.272 125.127 131.911 125.969 131.501 126.57C132.452 127.977 133.572 128.915 134.559 129.227C135.438 129.504 136.088 129.275 136.57 128.806C135.619 126.474 135.426 123.312 136.715 119.26C138.4 113.934 139.086 113.789 139.496 113.705C139.785 113.645 140.074 113.741 140.266 113.97C141.374 115.22 140.05 123.492 138.653 127.58C138.472 128.109 138.244 128.578 137.979 128.975C138.725 130.442 139.833 131.439 140.977 131.981C141.904 132.425 142.855 132.582 143.71 132.498C143.601 132.269 143.505 132.041 143.421 131.8C142.47 129.215 142.927 126.233 144.842 122.687C146.118 120.33 147.153 119.236 148.104 119.236C148.393 119.236 148.911 119.344 149.296 120.029C150.344 121.965 149.585 128.35 147.514 131.512C147.021 132.257 146.347 132.822 145.564 133.195C147.177 135.311 150.235 137.175 155.136 139.074C155.449 139.195 155.605 139.543 155.485 139.856C155.401 140.084 155.172 140.229 154.931 140.229ZM148.128 120.426C148.128 120.426 147.442 120.426 145.925 123.252C144.179 126.474 143.746 129.131 144.565 131.379C144.661 131.656 144.781 131.92 144.926 132.185C145.564 131.908 146.118 131.464 146.515 130.862C148.201 128.289 149.007 122.999 148.381 120.931C148.261 120.498 148.128 120.426 148.128 120.426ZM139.484 115.364C139.171 115.953 138.653 117.144 137.87 119.609C136.835 122.867 136.835 125.476 137.413 127.484C137.449 127.388 137.485 127.279 137.521 127.183C138.942 123.035 139.628 117.348 139.484 115.364ZM131.561 111.577C131.357 111.769 130.779 112.527 129.936 115.449C128.828 119.308 129.515 122.831 130.815 125.368C131.068 124.851 131.236 124.25 131.357 123.684C132.597 117.769 132.236 112.431 131.561 111.577Z" fill="#263238"/>
<path d="M200.707 203.243C198.877 203.243 196.938 202.822 195.217 201.812C194.928 201.644 194.831 201.271 195 200.994C195.168 200.706 195.542 200.61 195.819 200.778C200.117 203.291 205.667 201.536 206.811 199.708C206.944 199.492 207.064 199.215 206.992 198.902C205.294 199.083 203.199 198.638 200.815 197.135C197.757 195.223 197.516 194.658 197.528 194.201C197.54 193.937 197.697 193.696 197.938 193.576C199.142 192.975 204.572 195.464 206.835 196.955C207.136 197.147 207.377 197.363 207.582 197.58C208.581 197.339 209.364 196.822 209.869 196.197C210.218 195.776 210.459 195.307 210.58 194.851C210.495 194.863 210.423 194.875 210.339 194.875C208.412 195.067 206.486 194.237 204.427 192.35C203.019 191.051 202.465 190.149 202.645 189.428C202.706 189.2 202.898 188.791 203.512 188.647C205.174 188.238 209.291 189.981 210.965 191.821C211.338 192.229 211.603 192.722 211.736 193.239C213.301 192.506 214.962 190.847 216.937 188.106C217.129 187.841 217.503 187.769 217.78 187.961C218.044 188.154 218.117 188.526 217.924 188.803C215.649 191.977 213.758 193.781 211.844 194.514C211.772 195.356 211.422 196.221 210.796 196.967C210.182 197.7 209.291 198.325 208.172 198.662C208.292 199.203 208.184 199.78 207.835 200.333C206.823 201.968 203.91 203.243 200.707 203.243ZM199.635 194.911C200.045 195.211 200.623 195.608 201.453 196.125C203.091 197.147 204.548 197.616 205.788 197.712C203.789 196.474 201.176 195.38 199.635 194.911ZM203.837 189.801C203.91 189.993 204.174 190.486 205.246 191.472C207.04 193.119 208.665 193.865 210.218 193.684C210.351 193.672 210.471 193.648 210.604 193.624C210.519 193.263 210.339 192.915 210.086 192.626C208.388 190.787 204.656 189.608 203.837 189.801Z" fill="#263238"/>
<path d="M216.648 201.595L197.89 204.998L180.853 112.166L144.661 118.731L85.6768 223.333L92.0098 257.852L167.669 244.134L172.846 272.364L209.039 265.8L203.861 237.569L222.62 234.166L216.648 201.595ZM121.712 218.825L152.968 164.035L161.685 211.575L121.712 218.825Z" fill="#C00404"/>
<path d="M367.737 105.854C367.039 99.4451 365.751 93.7461 363.885 88.7564C362.018 83.7787 359.213 78.8853 355.469 74.1C351.724 69.3147 346.619 65.1547 340.178 61.6318C333.724 58.109 325.212 55.6563 314.629 54.2856C292.608 51.4241 275.439 55.3196 263.122 65.9963C250.805 76.673 242.702 97.1126 238.801 127.327C237.212 139.615 236.827 150.977 237.621 161.401C238.416 171.837 240.342 180.218 243.376 186.566C247.53 195.487 253.406 202.605 261.015 207.931C268.612 213.258 279.027 216.78 292.259 218.5C315.857 221.566 333.339 217.045 344.717 204.925C356.095 192.806 363.644 172.33 367.364 143.486C369.014 130.646 369.134 118.093 367.737 105.854Z" fill="#C00404"/>
<path d="M303.131 206.176C300.241 206.08 297.159 205.815 293.969 205.406C282.952 203.975 274.416 201.186 268.624 197.122C262.905 193.118 258.571 187.84 255.392 180.999L255.332 180.879C253.021 176.045 251.503 169.156 250.841 160.403C250.107 150.917 250.48 140.36 251.949 129.022C256.247 95.6937 265.121 81.7827 271.815 75.9875C279.617 69.2304 290.14 66.1765 303.998 66.6454C306.839 66.7416 309.849 66.9941 312.932 67.4029C321.829 68.5571 328.86 70.5289 333.845 73.2462C338.673 75.8793 342.442 78.9092 345.054 82.2516C347.944 85.9548 350.111 89.694 351.496 93.3972C352.965 97.3288 354.012 102.006 354.59 107.296C355.878 118.49 355.746 130.08 354.241 141.827C350.906 167.725 344.452 185.916 335.073 195.908C328.09 203.314 317.651 206.669 303.131 206.176Z" fill="#263238"/>
<path d="M326.693 106.202L326.85 101.645L324.044 100.731C323.924 99.1805 323.671 97.6415 323.298 96.1626L325.67 94.4193L324.056 90.139L321.119 90.3794C320.42 88.9968 319.602 87.6862 318.674 86.4478L320.191 83.9109L317.061 80.5804L314.436 81.9271C313.256 80.9291 312.004 80.0154 310.68 79.2098L311.101 76.3002L306.935 74.4125L305.033 76.6488C303.576 76.1799 302.071 75.8313 300.518 75.5908L299.808 72.7413L295.233 72.585L294.33 75.3864C292.764 75.5186 291.235 75.7591 289.754 76.1318L287.996 73.7753L283.71 75.3744L283.951 78.308C282.566 79.0174 281.254 79.835 280.014 80.7608L277.486 79.2459L274.138 82.3599L275.487 84.993C274.488 86.1593 273.573 87.4217 272.778 88.7443L269.864 88.3114L267.962 92.4715L270.213 94.3712C269.744 95.826 269.371 97.3409 269.154 98.8799L266.288 99.6013L266.132 104.158L268.949 105.072C269.07 106.635 269.322 108.162 269.696 109.641L267.324 111.384L268.937 115.664L271.875 115.424C272.573 116.807 273.392 118.117 274.319 119.356L272.802 121.892L275.932 125.223L278.557 123.876C279.725 124.874 280.989 125.788 282.314 126.594L281.88 129.503L286.046 131.391L287.96 129.155C289.417 129.623 290.922 129.972 292.475 130.213L293.186 133.062L297.761 133.218L298.664 130.417C300.229 130.285 301.758 130.044 303.239 129.672L304.985 132.028L309.271 130.429L309.042 127.495C310.427 126.786 311.739 125.968 312.98 125.043L315.508 126.558L318.855 123.443L317.507 120.81C318.506 119.644 319.421 118.382 320.216 117.059L323.129 117.492L325.032 113.332L322.78 111.432C323.25 109.977 323.611 108.474 323.84 106.923L326.693 106.202ZM295.871 120.967C285.877 120.63 278.063 112.262 278.401 102.283C278.738 92.2911 287.118 84.488 297.111 84.8247C307.104 85.1613 314.918 93.5295 314.581 103.521C314.232 113.488 305.864 121.303 295.871 120.967Z" fill="#C00404"/>
<path opacity="0.3" d="M345.692 189.86L346.017 186.794L344.175 186.037C344.163 184.978 344.079 183.932 343.898 182.922L345.584 181.852L344.729 178.883L342.73 178.895C342.321 177.921 341.851 176.995 341.285 176.117L342.429 174.482L340.491 172.077L338.648 172.847C337.914 172.114 337.119 171.44 336.253 170.839L336.698 168.879L333.989 167.388L332.568 168.819C331.593 168.41 330.594 168.11 329.582 167.869L329.245 165.897L326.175 165.549L325.417 167.388C324.357 167.4 323.322 167.497 322.298 167.677L321.227 165.982L318.253 166.847L318.265 168.843C317.302 169.252 316.375 169.721 315.484 170.286L313.846 169.132L311.438 171.068L312.209 172.907C311.498 173.641 310.8 174.434 310.198 175.3L308.26 174.867L306.767 177.572L308.187 178.967C307.79 179.953 307.477 180.939 307.236 181.961L305.262 182.285L304.937 185.351L306.779 186.121C306.767 187.167 306.875 188.201 307.056 189.223L305.358 190.293L306.225 193.263H308.223C308.633 194.224 309.102 195.15 309.668 196.028L308.512 197.663L310.439 200.08L312.293 199.298C313.027 200.032 313.822 200.705 314.689 201.306L314.243 203.266L316.952 204.757L318.373 203.338C319.348 203.735 320.348 204.035 321.359 204.276L321.696 206.248L324.766 206.596L325.525 204.745C326.572 204.733 327.62 204.637 328.643 204.456L329.715 206.152L332.677 205.286V203.29C333.64 202.881 334.567 202.412 335.458 201.847L337.083 203.001L339.503 201.078L338.721 199.238C339.455 198.505 340.129 197.711 340.743 196.845L342.682 197.278L344.175 194.573L342.754 193.178C343.151 192.192 343.452 191.207 343.693 190.197L345.692 189.86ZM330.196 188.67C328.764 191.267 325.501 192.229 322.9 190.798C320.3 189.367 319.36 186.109 320.781 183.512C322.214 180.915 325.465 179.977 328.065 181.396C330.666 182.826 331.617 186.073 330.196 188.67Z" fill="#C00404"/>
<path d="M362.753 137.908L359.165 135.431C359.165 135.431 359.165 135.431 359.165 135.419C358.816 134.121 358.322 132.858 357.72 131.692L358.635 128.085L353.434 122.518L349.774 123.192C348.642 122.518 347.426 121.941 346.15 121.496H346.138L343.91 117.745L336.289 117.48L333.809 121.063H333.797C332.496 121.412 331.244 121.905 330.064 122.506L326.452 121.592L320.878 126.786L321.552 130.442C320.866 131.584 320.3 132.81 319.854 134.073L316.098 136.297L315.833 143.908L319.421 146.384C319.77 147.695 320.252 148.945 320.866 150.136L319.951 153.731L325.152 159.298L328.788 158.636C329.932 159.31 331.16 159.887 332.448 160.332L334.676 164.071L342.297 164.335L344.777 160.752C346.089 160.404 347.354 159.911 348.546 159.31L352.134 160.223L357.708 155.029L357.034 151.374C357.72 150.232 358.286 149.006 358.732 147.731L362.488 145.507L362.753 137.908ZM338.998 149.474C334.254 149.318 330.558 145.338 330.714 140.625C330.871 135.888 334.844 132.197 339.576 132.353C344.32 132.51 348.016 136.477 347.859 141.202C347.703 145.928 343.73 149.643 338.998 149.474Z" fill="white"/>
<path d="M388.94 77.1539L389.567 75.6389C390.012 75.4105 390.445 75.1219 390.831 74.8214L392.227 74.8695L393.865 72.5249L393.335 71.2384C393.492 70.7695 393.612 70.2766 393.672 69.7716L394.876 68.6654L394.37 65.852L392.853 65.2268C392.625 64.7819 392.348 64.3611 392.035 63.9764L392.083 62.5816L389.735 60.9465L388.447 61.4755C387.965 61.3072 387.484 61.199 386.978 61.1389L385.87 59.9365L383.053 60.4415L382.427 61.9564C381.969 62.1849 381.548 62.4614 381.163 62.774L379.766 62.7259L378.129 65.0705L378.658 66.357C378.502 66.8379 378.381 67.3188 378.321 67.8358L377.117 68.942L377.623 71.7554L379.14 72.3806C379.369 72.8375 379.658 73.2583 379.971 73.6431L379.922 75.0258L382.27 76.6609L383.559 76.1319C384.04 76.3002 384.522 76.4084 385.027 76.4686L386.135 77.6709L388.94 77.1539ZM382.812 69.3508C382.499 67.5954 383.667 65.9362 385.413 65.6235C387.171 65.3109 388.832 66.4772 389.145 68.2206C389.458 69.976 388.29 71.6352 386.544 71.9478C384.811 72.2724 383.125 71.1062 382.812 69.3508Z" fill="#C00404"/>
<path d="M355.914 69.1824L354.999 68.4129C356.6 66.5253 358.864 64.1327 362.235 62.3652L362.789 63.4353C359.189 65.2989 356.889 68.0162 355.914 69.1824Z" fill="#C00404"/>
<path d="M365.522 62.3416L365.053 61.2355C369.604 59.2877 374.36 58.5302 379.188 58.9751L379.079 60.1774C374.444 59.7326 369.893 60.466 365.522 62.3416Z" fill="#C00404"/>
<path d="M363.246 70.6609L362.247 69.9876C364.715 66.3565 369.604 63.2064 374.131 62.3047L374.359 63.483C370.133 64.3246 365.558 67.2703 363.246 70.6609Z" fill="#C00404"/>
<path d="M283.349 186.362C283.192 186.362 283.036 186.302 282.915 186.181L280.387 183.584C279.099 183.464 277.835 183.224 276.594 182.875L272.657 184.606C272.465 184.691 272.248 184.666 272.079 184.558L265.481 180.194C265.313 180.086 265.205 179.893 265.217 179.689L265.277 175.409C264.47 174.411 263.76 173.329 263.146 172.186L259.762 170.876C259.57 170.804 259.425 170.635 259.389 170.431L257.812 162.688C257.776 162.484 257.836 162.279 257.981 162.135L260.581 159.61C260.702 158.335 260.942 157.061 261.28 155.823L259.546 151.903C259.461 151.711 259.486 151.494 259.594 151.326L263.964 144.737C264.073 144.569 264.241 144.461 264.47 144.473L268.756 144.533C269.768 143.727 270.851 143.018 271.983 142.417L273.295 139.038C273.368 138.846 273.536 138.701 273.741 138.665L281.495 137.09C281.699 137.054 281.904 137.114 282.049 137.259L284.565 139.856C285.841 139.976 287.117 140.216 288.357 140.553L292.283 138.822C292.475 138.737 292.692 138.762 292.86 138.87L299.458 143.234C299.627 143.342 299.735 143.535 299.723 143.739L299.663 148.032C300.47 149.029 301.18 150.112 301.782 151.242L305.165 152.552C305.358 152.624 305.502 152.793 305.539 152.997L307.116 160.74C307.152 160.945 307.092 161.149 306.947 161.293L304.347 163.818C304.226 165.081 303.985 166.355 303.636 167.593L305.37 171.525C305.454 171.717 305.43 171.934 305.322 172.102L300.951 178.679C300.843 178.847 300.662 178.931 300.446 178.943L296.159 178.883C295.16 179.677 294.076 180.386 292.933 180.999L291.62 184.378C291.548 184.57 291.38 184.715 291.175 184.751L283.421 186.326C283.433 186.362 283.397 186.362 283.349 186.362ZM276.57 181.637C276.631 181.637 276.679 181.649 276.739 181.661C278.027 182.033 279.364 182.286 280.724 182.406C280.869 182.418 281.001 182.478 281.109 182.586L283.566 185.111L290.669 183.669L291.945 180.386C291.994 180.254 292.102 180.134 292.234 180.074C293.438 179.448 294.582 178.703 295.63 177.849C295.738 177.765 295.858 177.705 296.015 177.717L300.193 177.777L304.202 171.741L302.517 167.918C302.456 167.786 302.456 167.642 302.492 167.509C302.878 166.199 303.119 164.852 303.239 163.53C303.251 163.385 303.311 163.253 303.42 163.145L305.948 160.692L304.503 153.598L301.216 152.324C301.072 152.276 300.963 152.168 300.891 152.035C300.265 150.833 299.519 149.703 298.664 148.657C298.567 148.549 298.519 148.404 298.531 148.26L298.591 144.088L292.547 140.084L288.719 141.767C288.586 141.827 288.442 141.827 288.309 141.791C287.009 141.407 285.661 141.166 284.312 141.046C284.168 141.034 284.035 140.974 283.927 140.866L281.483 138.341L274.379 139.784L273.103 143.066C273.055 143.198 272.946 143.318 272.814 143.378C271.61 144.004 270.478 144.749 269.419 145.603C269.31 145.687 269.166 145.759 269.021 145.735L264.843 145.675L260.834 151.711L262.52 155.534C262.592 155.702 262.592 155.883 262.508 156.051C262.17 157.253 261.918 158.588 261.809 159.935C261.797 160.079 261.737 160.211 261.629 160.319L259.1 162.772L260.545 169.866L263.832 171.14C263.976 171.2 264.097 171.309 264.157 171.453C264.783 172.643 265.53 173.773 266.372 174.807C266.469 174.916 266.517 175.06 266.517 175.204L266.457 179.376L272.501 183.38L276.33 181.697C276.402 181.661 276.486 181.637 276.57 181.637ZM282.482 177.753C279.436 177.753 276.366 176.887 273.645 175.096C270.069 172.727 267.637 169.12 266.782 164.924C265.927 160.728 266.758 156.46 269.13 152.889C274.03 145.531 283.999 143.499 291.367 148.38C298.736 153.262 300.759 163.229 295.87 170.587C292.8 175.24 287.695 177.753 282.482 177.753ZM270.141 153.55C267.95 156.845 267.179 160.8 267.974 164.684C268.768 168.567 271.02 171.898 274.319 174.086C281.146 178.595 290.368 176.731 294.883 169.926C299.398 163.121 297.532 153.899 290.717 149.378C283.891 144.869 274.668 146.745 270.141 153.55Z" fill="white"/>
<path d="M512.699 212.452L493.808 209.903L506.306 116.35L469.849 111.433L381.415 192.746L376.768 227.53L452.969 237.797L449.164 266.245L485.621 271.162L489.426 242.715L508.317 245.264L512.699 212.452ZM417.078 199.563L463.745 157.085L457.339 204.986L417.078 199.563Z" fill="#C00404"/>
<path d="M267.829 300.45C269.503 273.518 266.42 224.547 317.121 231.028C371.469 237.977 355.914 301.436 355.914 301.436L267.829 300.45Z" fill="#263238"/>
<path d="M302.818 284.268C315.04 284.268 324.948 274.374 324.948 262.169C324.948 249.964 315.04 240.07 302.818 240.07C290.596 240.07 280.688 249.964 280.688 262.169C280.688 274.374 290.596 284.268 302.818 284.268Z" fill="white"/>
<path d="M305.731 240.106C295.256 238.315 284.047 246.034 282.939 253.849L324.489 257.66C323.021 248.751 314.039 241.525 305.731 240.106Z" fill="#263238"/>
<path d="M319.758 261.616C319.457 267.387 316.314 271.92 312.714 271.739C309.126 271.559 306.454 266.725 306.755 260.942C307.056 255.171 310.198 250.638 313.798 250.819C317.374 251.011 320.047 255.844 319.758 261.616Z" fill="#263238"/>
<path d="M302.818 285.458C289.959 285.458 279.484 275.01 279.484 262.157C279.484 249.316 289.947 238.855 302.818 238.855C315.677 238.855 326.151 249.304 326.151 262.157C326.151 275.01 315.689 285.458 302.818 285.458ZM302.818 241.272C291.284 241.272 281.892 250.638 281.892 262.169C281.892 273.699 291.272 283.065 302.818 283.065C314.352 283.065 323.743 273.699 323.743 262.169C323.743 250.638 314.352 241.272 302.818 241.272Z" fill="#C00404"/>
<path opacity="0.3" d="M349.75 299.765C349.701 299.765 349.653 299.765 349.605 299.753C349.28 299.681 349.087 299.357 349.16 299.032C349.196 298.876 353.037 282.572 349.051 266.088C348.967 265.763 349.172 265.439 349.497 265.367C349.81 265.295 350.147 265.487 350.219 265.812C354.277 282.584 350.364 299.152 350.327 299.32C350.267 299.585 350.014 299.765 349.75 299.765Z" fill="white"/>
<path opacity="0.3" d="M346.39 257.071C346.162 257.071 345.945 256.938 345.836 256.722C344.283 253.343 342.369 250.253 340.129 247.512C339.925 247.26 339.961 246.875 340.214 246.67C340.467 246.454 340.852 246.502 341.057 246.755C343.356 249.568 345.343 252.754 346.932 256.217C347.077 256.518 346.932 256.878 346.631 257.01C346.559 257.047 346.475 257.071 346.39 257.071Z" fill="white"/>
<path d="M154.991 426.791C154.846 426.791 154.69 426.791 154.545 426.791C151.222 426.695 148.598 423.93 148.694 420.611C148.79 417.293 151.523 414.732 154.883 414.768C154.919 414.768 154.955 414.768 155.003 414.768C158.483 414.768 166.85 410.548 184.356 382.99C185.296 381.511 186.837 380.513 188.57 380.261C190.304 380.008 192.074 380.526 193.386 381.68C214.986 400.484 237.874 412.195 238.103 412.315C241.065 413.818 242.245 417.437 240.74 420.395C239.235 423.352 235.611 424.543 232.649 423.04C231.734 422.583 211.735 412.363 190.75 395.206C176.085 417.221 165.201 426.791 154.991 426.791Z" fill="#263238"/>
<path d="M192.242 380.597C192.074 380.597 191.905 380.585 191.724 380.561C189.75 380.285 188.377 378.457 188.654 376.486C189.509 370.498 188.45 348.074 180.864 330.641C180.178 329.054 180.708 327.202 182.141 326.216C198.635 314.998 233.768 313.652 235.249 313.604C237.236 313.556 238.909 315.095 238.981 317.078C239.054 319.074 237.488 320.733 235.502 320.806C235.177 320.818 204.463 321.996 188.678 330.665C195.397 348.026 196.926 369.668 195.806 377.495C195.553 379.299 194.012 380.597 192.242 380.597Z" fill="#263238"/>
<path d="M198.31 375.92C195.902 370.257 185.078 370.907 178.721 375.752C175.326 378.349 170.727 386.14 170.245 388.966C169.763 391.791 171.726 394.352 175.085 394.064C179.239 393.703 184.934 387.679 184.934 387.679C181.141 391.394 186.03 394.015 193.338 388.641C197.383 385.671 200.995 382.257 198.31 375.92Z" fill="#C00404"/>
<path d="M405.399 302.037C405.338 302.037 405.29 302.025 405.23 302.013C404.905 301.917 404.724 301.592 404.821 301.268C406.422 295.689 408.18 292.286 410.48 290.387C410.13 289.184 410.167 287.814 410.66 286.467C411.142 285.156 412.081 283.858 413.502 282.86C412.803 282.103 412.55 281.117 412.791 279.998C413.068 278.748 413.971 277.389 415.368 276.199C414.826 275.574 414.694 274.889 414.682 274.384C414.645 270.801 421.316 265.33 428.841 264.308C429.166 264.248 429.479 264.488 429.515 264.825C429.563 265.15 429.334 265.462 428.997 265.498C421.845 266.472 415.849 271.642 415.874 274.372C415.874 274.816 416.042 275.165 416.307 275.454C419.016 273.566 423.013 272.352 427.48 273.217C431.176 273.927 432.681 274.708 432.501 275.826C432.176 277.93 424.302 278.375 419.028 277.738C417.836 277.594 416.957 277.317 416.319 276.957C415.007 278.027 414.164 279.229 413.947 280.239C413.754 281.141 414.043 281.766 414.549 282.211C416.789 281.057 419.931 280.576 424.085 281.501C429.551 282.704 429.756 283.365 429.876 283.762C429.96 284.05 429.888 284.339 429.683 284.555C428.528 285.77 420.16 285.193 415.958 284.171C415.416 284.038 414.922 283.858 414.513 283.629C413.116 284.507 412.225 285.685 411.78 286.888C411.431 287.85 411.346 288.8 411.503 289.653C411.72 289.521 411.936 289.401 412.165 289.304C414.657 288.126 417.667 288.319 421.376 289.906C423.832 290.964 425.024 291.89 425.108 292.839C425.132 293.116 425.084 293.657 424.422 294.09C422.592 295.304 416.15 295.124 412.803 293.344C412.009 292.924 411.395 292.298 410.949 291.553C408.987 293.344 407.397 296.567 405.941 301.604C405.892 301.869 405.652 302.037 405.399 302.037ZM411.924 290.819C412.262 291.433 412.755 291.938 413.393 292.286C416.114 293.729 421.46 294.066 423.459 293.248C423.868 293.08 423.928 292.948 423.928 292.948C423.928 292.948 423.868 292.274 420.918 291.012C417.547 289.569 414.85 289.365 412.695 290.387C412.43 290.507 412.177 290.651 411.924 290.819ZM415.946 282.92C416.054 282.956 416.15 282.98 416.259 283.004C420.509 284.038 426.252 284.219 428.215 283.894C427.6 283.642 426.36 283.221 423.832 282.668C420.497 281.934 417.884 282.163 415.946 282.92ZM417.463 276.163C418.005 276.367 418.619 276.488 419.197 276.548C425.192 277.257 430.49 276.416 431.285 275.67C431.08 275.49 430.273 274.973 427.275 274.396C423.314 273.65 419.859 274.636 417.463 276.163Z" fill="#263238"/>
<path d="M248.662 424.783C249.457 424.53 249.192 423.761 248.301 423.761H231.999C200.959 420.479 179.275 424.879 192.941 425.913C206.606 426.947 191.978 426.731 181.996 430.506C172.015 434.281 256.223 435.231 263.893 430.506C270.948 426.154 237.657 428.294 248.662 424.783Z" fill="#263238"/>
<path d="M365.378 429.581L223.547 424.88L217.659 287.55L385.148 291.289L365.378 429.581Z" fill="#C00404"/>
<path d="M267.83 426.948C267.517 426.948 267.252 426.707 267.228 426.395L255.862 288.463C255.838 288.127 256.079 287.838 256.416 287.814C256.753 287.79 257.042 288.031 257.066 288.367L268.432 426.298C268.456 426.635 268.215 426.924 267.878 426.948C267.866 426.948 267.854 426.948 267.83 426.948Z" fill="#263238"/>
<path d="M365.378 429.581L403.497 423.786L415.5 296.086L385.148 291.289L365.378 429.581Z" fill="#C00404"/>
<path opacity="0.2" d="M365.378 429.581L403.497 423.786L415.5 296.086L385.148 291.289L365.378 429.581Z" fill="black"/>
<path d="M235.658 398.404L232.167 316.814C231.806 308.302 238.717 301.244 247.253 301.436L353.277 303.805C362.127 303.997 368.821 311.885 367.569 320.638L355.818 402.865C354.758 410.319 348.244 415.778 340.707 415.525L249.938 412.52C242.208 412.267 235.996 406.111 235.658 398.404Z" fill="#263238"/>
<path d="M247.121 326.48L263.52 326.997L263.387 331.218L253.117 330.893L253.021 334.031L262.544 334.332L262.412 338.371L252.888 338.071L252.768 341.966L263.339 342.303L263.195 346.788L246.495 346.259L247.121 326.48Z" fill="white"/>
<path d="M266.565 346.896L267.192 327.118L277.389 327.443C279.28 327.503 280.724 327.707 281.712 328.068C282.699 328.429 283.494 329.054 284.072 329.944C284.662 330.845 284.926 331.915 284.89 333.178C284.854 334.272 284.589 335.21 284.096 335.991C283.602 336.773 282.94 337.398 282.097 337.867C281.567 338.168 280.845 338.408 279.918 338.576C280.64 338.841 281.158 339.105 281.483 339.358C281.7 339.526 282.013 339.887 282.434 340.428C282.844 340.969 283.12 341.39 283.253 341.678L286.034 347.51L279.123 347.293L276.041 341.149C275.656 340.356 275.294 339.839 274.981 339.586C274.548 339.262 274.054 339.093 273.5 339.081L272.959 339.069L272.706 347.101L266.565 346.896ZM273.091 335.33L275.668 335.414C275.945 335.426 276.486 335.354 277.293 335.198C277.702 335.126 278.04 334.933 278.304 334.609C278.569 334.284 278.714 333.911 278.726 333.478C278.75 332.841 278.557 332.348 278.16 331.988C277.763 331.627 277.004 331.435 275.896 331.398L273.212 331.314L273.091 335.33Z" fill="white"/>
<path d="M288.094 347.581L288.72 327.803L298.918 328.127C300.808 328.187 302.253 328.392 303.24 328.753C304.227 329.113 305.022 329.738 305.6 330.628C306.19 331.53 306.455 332.6 306.419 333.862C306.383 334.957 306.118 335.894 305.624 336.676C305.13 337.457 304.468 338.083 303.625 338.552C303.096 338.852 302.373 339.093 301.446 339.261C302.169 339.525 302.686 339.79 303.011 340.042C303.228 340.211 303.541 340.571 303.962 341.112C304.372 341.654 304.649 342.074 304.781 342.363L307.562 348.194L300.651 347.978L297.569 341.834C297.184 341.04 296.823 340.523 296.51 340.271C296.076 339.946 295.583 339.778 295.029 339.766L294.487 339.754L294.234 347.785L288.094 347.581ZM294.607 336.003L297.184 336.087C297.461 336.099 298.003 336.027 298.809 335.87C299.219 335.798 299.556 335.606 299.821 335.281C300.086 334.957 300.23 334.584 300.242 334.151C300.266 333.514 300.074 333.021 299.676 332.66C299.279 332.299 298.52 332.107 297.413 332.071L294.728 331.987L294.607 336.003Z" fill="white"/>
<path d="M308.61 338.348C308.718 335.113 309.693 332.637 311.547 330.893C313.402 329.15 315.942 328.332 319.157 328.428C322.456 328.537 324.96 329.499 326.694 331.326C328.416 333.154 329.234 335.654 329.138 338.841C329.066 341.149 328.608 343.037 327.789 344.492C326.959 345.946 325.803 347.065 324.298 347.834C322.793 348.616 320.951 348.964 318.747 348.892C316.508 348.82 314.678 348.411 313.233 347.654C311.788 346.896 310.644 345.73 309.778 344.167C308.923 342.592 308.525 340.656 308.61 338.348ZM314.726 338.564C314.666 340.56 314.991 342.003 315.701 342.905C316.412 343.806 317.411 344.263 318.687 344.311C320 344.347 321.035 343.963 321.781 343.121C322.528 342.291 322.937 340.764 323.01 338.552C323.07 336.688 322.733 335.318 322.01 334.44C321.288 333.562 320.276 333.094 318.988 333.057C317.748 333.021 316.749 333.418 315.978 334.272C315.208 335.113 314.786 336.544 314.726 338.564Z" fill="white"/>
<path d="M332.195 348.976L332.821 329.197L343.019 329.522C344.91 329.582 346.354 329.786 347.342 330.147C348.329 330.508 349.124 331.133 349.701 332.023C350.291 332.924 350.556 333.995 350.52 335.257C350.484 336.351 350.219 337.289 349.726 338.07C349.232 338.852 348.57 339.477 347.727 339.946C347.197 340.247 346.475 340.487 345.548 340.655C346.27 340.92 346.788 341.185 347.113 341.437C347.33 341.605 347.643 341.966 348.064 342.507C348.473 343.048 348.75 343.469 348.883 343.758L351.664 349.589L344.753 349.372L341.671 343.228C341.286 342.435 340.924 341.918 340.611 341.665C340.178 341.341 339.684 341.172 339.13 341.16L338.589 341.148L338.336 349.18L332.195 348.976ZM338.709 337.409L341.285 337.493C341.562 337.505 342.104 337.433 342.911 337.277C343.32 337.205 343.657 337.012 343.922 336.688C344.187 336.363 344.332 335.99 344.344 335.558C344.368 334.92 344.175 334.427 343.778 334.067C343.38 333.706 342.622 333.514 341.514 333.478L338.829 333.393L338.709 337.409Z" fill="white"/>
<path d="M341.936 382.593C341.503 382.593 341.081 382.425 340.768 382.076L330.462 370.811L319.337 380.958C318.687 381.547 317.687 381.499 317.11 380.862L306.803 369.596L295.678 379.744C295.028 380.333 294.029 380.285 293.451 379.648L283.145 368.382L272.02 378.53C271.707 378.818 271.297 378.962 270.888 378.938C270.467 378.914 270.069 378.734 269.792 378.421L259.486 367.156L248.361 377.303C247.723 377.892 246.712 377.844 246.134 377.207C245.544 376.558 245.592 375.56 246.23 374.983L258.523 363.765C259.161 363.176 260.172 363.224 260.75 363.861L271.057 375.127L282.181 364.979C282.494 364.691 282.904 364.546 283.313 364.571C283.735 364.595 284.132 364.775 284.409 365.088L294.715 376.353L305.84 366.206C306.478 365.617 307.49 365.665 308.067 366.302L318.374 377.568L329.499 367.42C330.137 366.831 331.136 366.879 331.726 367.516L343.104 379.948C343.694 380.598 343.646 381.595 343.008 382.173C342.695 382.449 342.309 382.593 341.936 382.593Z" fill="white"/>
<path d="M151.403 432.49L143.866 428.907L137.147 396.24L140.796 392.236L151.403 432.49Z" fill="#C00404"/>
<path d="M151.402 432.49L161.395 426.659L152.835 399.751L140.795 392.236L151.402 432.49Z" fill="#C00404"/>
<path opacity="0.2" d="M151.402 432.49L161.395 426.659L152.835 399.751L140.795 392.236L151.402 432.49Z" fill="black"/>
<path d="M315.388 438.43C315.099 438.43 314.822 438.43 314.557 438.418C311.234 438.321 308.609 435.556 308.706 432.238C308.802 428.919 311.547 426.31 314.894 426.394C324.165 426.695 343.802 421.008 355.012 410.139C355.71 409.465 356.553 408.972 357.48 408.696C376.491 402.997 383.558 414.503 383.859 414.996L373.493 421.116C373.493 421.116 373.529 421.2 373.637 421.332C373.517 421.176 370.832 417.677 362.26 419.842C348.161 432.682 326.561 438.43 315.388 438.43Z" fill="#263238"/>
<path d="M314.713 446.426L292.788 445.043L291.066 404.681L320.528 405.775L314.713 446.426Z" fill="#C00404"/>
<path d="M314.713 446.425L319.842 441.327L323.02 416.163L320.528 405.774L314.713 446.425Z" fill="#C00404"/>
<path opacity="0.2" d="M314.713 446.425L319.842 441.327L323.02 416.163L320.528 405.774L314.713 446.425Z" fill="black"/>
<path d="M441.759 431.131C441 431.131 440.23 430.891 439.58 430.398C427.07 420.899 410.142 404.031 403.652 387.763C403.556 387.523 403.484 387.282 403.448 387.03C400.281 368.237 397.259 328.669 397.127 326.997C396.97 325.014 398.463 323.282 400.45 323.126C402.436 322.982 404.17 324.461 404.326 326.444C404.363 326.853 407.409 366.807 410.503 385.443C416.98 401.265 434.535 417.509 443.95 424.651C445.539 425.853 445.852 428.113 444.636 429.7C443.926 430.65 442.854 431.131 441.759 431.131Z" fill="#263238"/>
<path d="M458.459 432.96C455.665 432.96 452.499 431.697 449.055 429.208C447.442 428.042 447.081 425.782 448.249 424.171C449.417 422.559 451.68 422.199 453.294 423.365C456.279 425.517 457.905 425.758 458.471 425.758C460.469 425.758 462.083 427.369 462.083 429.365C462.071 431.348 460.445 432.96 458.459 432.96Z" fill="#263238"/>
<path d="M450.055 429.099C453.92 417.629 469.764 419.901 475.218 421.597C480.673 423.304 485.585 425.444 488.547 427.368C491.497 429.292 491.545 432.526 487.608 434.365C482.743 436.638 470.559 434.618 470.559 434.618C476.868 437.371 470.547 441.796 459.47 437.455C455.882 436.049 448.694 433.295 450.055 429.099Z" fill="#C00404"/>
<path d="M411.599 331.939C410.167 341.678 402.088 348.868 395.514 347.894C388.94 346.932 388.675 338.227 390.108 328.488C391.541 318.749 394.141 311.656 400.715 312.618C407.277 313.591 413.032 322.2 411.599 331.939Z" fill="#263238"/>
<path d="M252.695 293.056C253.241 293.056 253.683 292.614 253.683 292.07C253.683 291.525 253.241 291.084 252.695 291.084C252.15 291.084 251.708 291.525 251.708 292.07C251.708 292.614 252.15 293.056 252.695 293.056Z" fill="#263238"/>
<path d="M262.725 299.176C262.725 299.717 262.279 300.162 261.737 300.162C261.195 300.162 260.75 299.717 260.75 299.176C260.75 298.635 261.195 298.19 261.737 298.19C262.279 298.19 262.725 298.623 262.725 299.176Z" fill="#263238"/>
<path d="M263.82 415.681C263.82 416.222 263.375 416.667 262.833 416.667C262.291 416.667 261.846 416.222 261.846 415.681C261.846 415.14 262.291 414.695 262.833 414.695C263.387 414.695 263.82 415.14 263.82 415.681Z" fill="#263238"/>
<path d="M272.874 422.775C272.874 423.316 272.429 423.761 271.887 423.761C271.345 423.761 270.899 423.316 270.899 422.775C270.899 422.234 271.345 421.789 271.887 421.789C272.429 421.789 272.874 422.234 272.874 422.775Z" fill="#263238"/>
<path d="M99.3417 434.606C96.4762 434.606 92.5993 432.875 90.5164 429.857C90.3237 429.58 90.396 429.208 90.6729 429.015C90.9498 428.823 91.3231 428.895 91.5157 429.172C93.7672 432.406 98.7156 434.137 100.919 433.115C101.148 433.007 101.34 432.875 101.485 432.706C99.5223 431.805 97.7283 430.025 97.2347 427.32C96.9578 425.793 96.7411 423.737 98.0052 423.448C99.727 423.064 101.99 427.236 102.857 430.398C103.014 430.987 103.074 431.528 103.014 432.009C103.772 432.213 104.519 432.274 105.169 432.177C105.687 432.105 106.433 431.889 106.819 431.276C105.362 430.29 104.374 428.546 104.049 426.238C103.58 422.955 103.929 422.378 104.302 422.102C104.543 421.921 104.844 421.885 105.133 422.006C106.421 422.559 107.986 427.212 108.275 429.857C108.311 430.145 108.311 430.422 108.275 430.686C108.769 430.879 109.311 430.987 109.901 430.999C110.948 431.059 111.972 430.723 112.802 430.242C112.634 430.133 112.465 430.013 112.321 429.881C111.069 428.811 110.563 427.116 110.78 424.675C110.948 422.787 111.37 421.765 112.128 421.441C112.393 421.32 112.935 421.212 113.585 421.729C114.885 422.763 116.101 426.057 115.668 428.414C115.572 428.907 115.367 429.364 115.066 429.797C117.269 430.181 120.388 429.556 123.06 428.895C123.386 428.811 123.711 429.015 123.795 429.34C123.879 429.664 123.675 429.989 123.349 430.073C120.087 430.879 116.571 431.528 114.091 430.819C112.983 431.696 111.43 432.225 109.877 432.213C109.166 432.201 108.504 432.069 107.902 431.841C107.433 432.646 106.542 433.187 105.35 433.368C104.555 433.488 103.604 433.416 102.653 433.139C102.376 433.596 101.978 433.957 101.437 434.209C100.835 434.474 100.124 434.606 99.3417 434.606ZM98.3063 424.651C98.234 424.831 98.1136 425.444 98.4026 427.104C98.7999 429.316 100.233 430.783 101.822 431.564C101.81 431.312 101.762 431.023 101.677 430.71C100.738 427.272 98.9323 424.903 98.3063 424.651ZM105.013 423.605C105 424.062 105.049 424.819 105.229 426.082C105.47 427.801 106.108 429.111 107.059 429.953C106.77 427.536 105.699 424.747 105.013 423.605ZM112.586 422.559C112.586 422.559 112.128 422.787 111.96 424.795C111.779 426.815 112.152 428.186 113.079 428.979C113.296 429.159 113.537 429.316 113.802 429.436C114.139 429.063 114.38 428.642 114.452 428.198C114.777 426.454 113.946 423.905 113.007 422.871C112.778 422.607 112.622 422.559 112.586 422.559Z" fill="#263238"/>
<path d="M275.56 443.695L278.823 438.044L275.56 432.394H272.068L274.043 438.044L272.068 443.695H275.56Z" fill="#263238"/>
<path d="M272.297 440.99C270.671 440.99 269.347 439.668 269.347 438.045C269.347 436.422 270.671 435.111 272.297 435.111L266.746 434.005L265.277 438.478L267.758 442.253L272.297 440.99Z" fill="#263238"/>
<path d="M272.778 432.394H266.24L262.978 438.044L266.24 443.695H272.778L276.041 438.044L272.778 432.394ZM269.515 440.99C267.89 440.99 266.565 439.668 266.565 438.044C266.565 436.421 267.89 435.111 269.515 435.111C271.141 435.111 272.453 436.421 272.453 438.044C272.453 439.668 271.141 440.99 269.515 440.99Z" fill="#C00404"/>
<path d="M503.139 432.009L500.719 427.813L503.139 423.617H505.727L504.271 427.813L505.727 432.009H503.139Z" fill="#C00404"/>
<path d="M505.559 430.001C506.763 430.001 507.75 429.015 507.75 427.813C507.75 426.611 506.763 425.637 505.559 425.637L509.676 424.819L510.772 428.138L508.93 430.939L505.559 430.001Z" fill="#C00404"/>
<path d="M505.21 423.617H510.062L512.482 427.813L510.062 432.009H505.21L502.79 427.813L505.21 423.617ZM507.63 430.002C508.834 430.002 509.821 429.016 509.821 427.813C509.821 426.611 508.834 425.637 507.63 425.637C506.426 425.637 505.451 426.611 505.451 427.813C505.451 429.016 506.426 430.002 507.63 430.002Z" fill="#263238"/>
<path d="M412.912 437.587H418.354C419.774 437.587 420.93 436.433 420.93 435.014C420.93 433.596 419.774 432.441 418.354 432.441H412.912C411.491 432.441 410.335 433.596 410.335 435.014C410.335 436.421 411.491 437.587 412.912 437.587Z" fill="#263238"/>
<path d="M404.219 432.73C405.567 429.88 408.818 428.594 411.491 429.856C414.164 431.119 415.247 434.437 413.899 437.287C412.55 440.136 409.3 441.423 406.627 440.16C403.954 438.898 402.87 435.579 404.219 432.73Z" fill="#C00404"/>
<path d="M405.744 440.13L407.236 440.833L412.423 429.849L410.931 429.147L405.744 440.13Z" fill="#263238"/>
</svg>
