<svg width="219" height="204" viewBox="0 0 219 204" fill="none" xmlns="http://www.w3.org/2000/svg">
<path opacity="0.1" d="M205.209 113.739C205.209 146.597 187.483 175.483 161.075 191.009C161.075 191.009 160.894 191.19 160.713 191.19C158.905 192.273 157.096 193.176 155.287 194.079C154.383 194.62 153.478 194.981 152.574 195.342C152.212 195.523 151.85 195.703 151.489 195.884H151.308C150.946 196.064 150.403 196.245 150.042 196.426C147.329 197.689 144.435 198.592 141.541 199.495C141.179 199.675 140.636 199.856 140.274 199.856C140.094 199.856 139.913 200.036 139.732 200.036C139.551 200.036 139.37 200.036 139.37 200.217C139.189 200.217 139.008 200.217 138.827 200.397C135.029 201.481 131.05 202.203 126.89 202.744C123.091 203.286 119.293 203.467 115.495 203.467C109.345 203.467 103.376 202.925 97.588 201.661C97.2263 201.661 96.8645 201.481 96.5028 201.481C95.2366 201.3 93.9705 200.939 92.7044 200.578C91.4383 200.217 90.1721 199.856 88.906 199.495C83.8415 197.87 78.777 195.884 74.0743 193.537C45.1343 178.552 25.4189 148.402 25.4189 113.739C25.4189 64.091 65.754 24.0115 115.314 24.0115C165.054 24.0115 205.209 64.091 205.209 113.739Z" fill="#9A0937"/>
<path d="M107.536 72.9375C98.8543 65.8965 94.3324 54.1615 95.9603 43.1487C97.769 30.6915 106.632 28.3445 111.154 30.3304C114.41 31.7748 116.399 36.1077 114.59 39.3574C111.516 45.1346 99.7586 42.7876 97.4073 32.858C96.5029 29.2472 97.4073 25.2754 99.5778 22.2062C103.195 17.3317 109.888 15.5263 115.857 14.6236C117.123 14.4431 118.57 14.2625 120.017 14.082C123.272 13.7209 127.252 13.1793 131.412 12.6377" stroke="#A51C30" stroke-miterlimit="10" stroke-linecap="round" stroke-linejoin="round"/>
<path d="M140.454 14.9848L134.847 17.5124L135.752 7.94385" fill="#420004"/>
<path d="M176.448 3.24981L173.916 4.69412L144.614 21.1231L137.018 9.92973L135.751 7.94381L130.325 0.00012207L171.746 2.88873L176.448 3.24981Z" fill="#A51C30"/>
<path d="M176.449 3.24975L173.917 4.69405L137.018 9.92967L135.752 7.94374L171.746 2.88867L176.449 3.24975Z" fill="#4A0206"/>
<path d="M28.6172 61.1492C30.9922 60.3787 32.2917 57.8324 31.5198 55.4618C30.7479 53.0912 28.1968 51.7941 25.8218 52.5646C23.4468 53.3351 22.1473 55.8814 22.9192 58.252C23.6911 60.6226 26.2422 61.9197 28.6172 61.1492Z" fill="#F5E6EB"/>
<path d="M38.4867 46.423C40.1017 45.8991 40.9854 44.1676 40.4605 42.5556C39.9355 40.9436 38.2008 40.0616 36.5858 40.5855C34.9708 41.1094 34.0871 42.841 34.6121 44.4529C35.137 46.0649 36.8717 46.947 38.4867 46.423Z" fill="#F5E6EB"/>
<path d="M75.6421 25.2236C78.4443 22.6676 78.64 18.3281 76.0793 15.5312C73.5185 12.7342 69.171 12.5388 66.3688 15.0948C63.5666 17.6508 63.3708 21.9903 65.9316 24.7873C68.4924 27.5843 72.8399 27.7796 75.6421 25.2236Z" fill="#F5E6EB"/>
<path d="M216.865 60.4235C218.044 59.3473 218.127 57.5201 217.049 56.3425C215.97 55.1648 214.14 55.0825 212.96 56.1588C211.78 57.235 211.698 59.0621 212.776 60.2398C213.854 61.4175 215.685 61.4997 216.865 60.4235Z" fill="#EAEEF9"/>
<path d="M142.446 150.389V200.037C142.085 200.217 141.723 200.217 141.361 200.398C137.201 201.481 132.86 202.384 128.519 202.925V150.389H142.446Z" fill="#4988FD"/>
<path d="M142.446 150.389V200.037C142.085 200.217 141.723 200.217 141.361 200.398C137.201 201.481 132.86 202.384 128.519 202.925V150.389H142.446Z" fill="white"/>
<path opacity="0.4" d="M155.289 150.389H128.519V165.915H155.289V150.389Z" fill="#A51C30"/>
<path d="M212.083 95.5048V151.111H168.673V151.291H81.6724V51.4535H164.332C165.417 51.2729 166.503 51.2729 167.769 51.2729C169.216 51.2729 170.482 51.2729 171.929 51.4535C173.738 51.634 175.366 51.8146 176.993 52.1756C185.495 53.981 193.091 58.3139 199.06 64.0912C207.2 72.2154 212.083 83.4088 212.083 95.5048Z" fill="#002349"/>
<path d="M177.536 107.24C183.03 107.24 187.484 102.794 187.484 97.3102C187.484 91.8263 183.03 87.3806 177.536 87.3806C172.042 87.3806 167.588 91.8263 167.588 97.3102C167.588 102.794 172.042 107.24 177.536 107.24Z" fill="white"/>
<path d="M182.42 88.4637C185.495 90.0886 187.665 93.5188 187.665 97.3101C187.665 102.907 183.143 107.24 177.717 107.24C172.11 107.24 167.769 102.726 167.769 97.3101C167.769 94.7826 168.673 92.6161 170.12 90.8107" stroke="#A51C30" stroke-miterlimit="10" stroke-linecap="round" stroke-linejoin="round"/>
<path d="M124.9 91.1718V151.291H36.2715V91.1718C36.2715 72.2153 49.6562 56.3279 67.382 52.3561C70.2759 51.6339 73.1699 51.4534 76.2448 51.4534H85.2886C105.185 51.4534 121.644 65.8964 124.719 85.0335C124.719 86.8389 124.9 89.0053 124.9 91.1718Z" fill="#002349"/>
<path d="M175.365 49.1064H180.43V96.9491C180.43 98.3934 179.344 99.4766 177.897 99.4766C176.45 99.4766 175.365 98.3934 175.365 96.9491V58.8555" fill="white"/>
<path d="M175.365 49.1064H180.43V96.9491C180.43 98.3934 179.344 99.4766 177.897 99.4766C176.45 99.4766 175.365 98.3934 175.365 96.9491V58.8555" stroke="#A51C30" stroke-miterlimit="10" stroke-linecap="round" stroke-linejoin="round"/>
<path d="M203.941 48.3843C204.665 48.9259 204.303 50.1897 203.218 50.1897H179.704H174.278V30.511H203.218C204.122 30.511 204.665 31.5942 203.941 32.3164L196.345 38.6352C195.259 39.5379 195.259 41.1627 196.345 42.0654L203.941 48.3843Z" fill="#A51C30"/>
<path d="M104.101 185.232C101.569 189.023 98.4939 195.162 96.6852 200.397C96.5043 200.758 96.3234 201.3 96.3234 201.661C95.0573 201.481 93.7912 201.12 92.5251 200.758C91.4398 198.231 90.7163 195.523 90.7163 195.523C91.4398 194.62 91.9824 193.898 92.7059 193.176C96.1426 188.843 99.7601 185.954 104.101 185.232Z" fill="#9A0937"/>
<path d="M97.4064 201.842C97.0446 201.842 96.6829 201.661 96.3211 201.661C95.055 201.481 93.7889 201.12 92.5228 200.759C91.6184 200.578 90.8949 200.217 89.9905 200.036C89.6288 199.856 89.267 199.856 88.9053 199.675C88.5435 199.495 88.1818 199.495 87.6392 199.314C82.9364 197.87 78.4145 195.884 74.0735 193.718C69.5517 186.135 67.0194 176.747 62.6784 163.929C62.6784 163.748 62.6784 163.748 62.4976 163.568C62.4976 163.568 62.8593 163.568 63.7637 163.929C64.3063 164.29 65.2107 164.651 66.2959 165.373C68.4664 166.817 71.903 169.345 76.9675 173.497C83.2982 178.733 88.7244 186.496 92.5228 192.995C94.1507 195.884 95.5976 198.412 96.6829 200.397C97.0446 200.759 97.2255 201.3 97.4064 201.842Z" fill="#9A0937"/>
<path d="M142.445 200.036C142.626 200.036 142.626 200.036 142.807 200.036C142.626 200.036 142.264 200.217 142.083 200.217C142.083 200.036 142.264 200.036 142.445 200.036Z" fill="#D5DAE8"/>
<path d="M142.988 199.856C143.169 199.856 143.169 199.856 143.349 199.675C143.169 199.675 142.807 199.856 142.626 199.856C142.807 199.856 142.807 199.856 142.988 199.856Z" fill="#D5DAE8"/>
<path d="M174.639 160.318C174.639 160.318 174.458 160.679 174.097 161.401C171.926 165.373 164.51 179.094 161.074 190.829C161.074 190.829 160.893 191.01 160.712 191.01C158.903 192.093 157.094 192.995 155.286 193.898C154.381 194.44 153.477 194.801 152.573 195.162C152.211 195.342 151.849 195.523 151.487 195.703H151.306C150.945 195.884 150.402 196.065 150.04 196.245C147.327 197.509 144.433 198.412 141.539 199.314C141.177 199.495 140.635 199.675 140.273 199.675C140.092 199.675 139.911 199.856 139.73 199.856C139.55 199.856 139.369 199.856 139.369 200.036C140.092 197.689 140.816 195.342 141.72 193.356C144.433 186.315 147.87 180.719 151.849 176.025C153.115 174.581 154.381 173.136 155.647 171.872C160.893 166.637 166.5 163.207 171.745 161.401C172.469 161.04 173.554 160.679 174.639 160.318Z" fill="#A51C30"/>
<path d="M174.641 160.318C174.641 160.318 174.46 160.679 174.098 161.401C167.225 167.359 160.894 176.747 155.287 188.843C154.383 191.009 153.479 192.995 152.574 195.342C152.212 195.523 151.851 195.703 151.489 195.884H151.308C150.946 196.065 150.404 196.245 150.042 196.426C150.223 196.065 150.404 195.884 150.404 195.884C152.032 191.912 153.659 188.121 155.287 184.691C160.171 174.761 165.597 166.817 171.385 161.401C172.47 161.04 173.556 160.679 174.641 160.318Z" fill="#420004"/>
<path d="M139.732 198.592C140.275 196.787 140.818 195.162 141.541 193.537C144.254 186.496 147.691 180.899 151.67 176.205C152.936 174.761 154.202 173.317 155.469 172.053C160.714 166.817 166.321 163.387 171.566 161.582C172.652 161.221 173.737 160.86 174.822 160.499C174.822 160.499 174.641 160.86 174.28 161.582C172.29 165.373 165.598 177.65 161.98 189.024" stroke="#A51C30" stroke-miterlimit="10" stroke-linecap="round" stroke-linejoin="round"/>
<path d="M149.679 200.217C149.318 201.12 149.137 202.022 148.775 202.925" stroke="white" stroke-miterlimit="10"/>
<path d="M72.8074 191.371C69.009 184.149 66.4768 175.303 62.6784 163.568C62.6784 163.387 62.6784 163.387 62.4976 163.207C62.4976 163.207 62.8593 163.207 63.7637 163.568C64.3063 163.929 65.2107 164.29 66.2959 165.012C68.4664 166.456 71.903 168.984 76.9675 173.136C83.2982 178.372 88.7244 186.135 92.5228 192.634C94.1507 195.523 95.5976 198.05 96.6829 200.036" fill="#A51C30"/>
<path d="M72.8074 191.371C69.009 184.149 66.4768 175.303 62.6784 163.568C62.6784 163.387 62.6784 163.387 62.4976 163.207C62.4976 163.207 62.8593 163.207 63.7637 163.568C64.3063 163.929 65.2107 164.29 66.2959 165.012C68.4664 166.456 71.903 168.984 76.9675 173.136C83.2982 178.372 88.7244 186.135 92.5228 192.634C94.1507 195.523 95.5976 198.05 96.6829 200.036" stroke="#9A0937" stroke-miterlimit="10" stroke-linecap="round" stroke-linejoin="round"/>
<path d="M89.9905 199.856C89.6288 199.675 89.267 199.675 88.9053 199.495C88.5435 199.314 88.1818 199.314 87.6392 199.134C79.3189 182.344 69.9134 171.692 64.3063 165.554C63.7637 164.831 63.2211 164.29 62.6784 163.748C62.6784 163.568 62.6784 163.568 62.4976 163.387C62.4976 163.387 62.8593 163.387 63.7637 163.748C64.3063 164.109 65.2107 164.47 66.2959 165.192C72.0839 171.692 81.6703 182.705 89.9905 199.856Z" fill="#420004"/>
<path d="M124.899 84.8531C121.824 65.8966 105.003 51.2729 85.1067 51.2729H76.063C72.9881 51.2729 70.0941 51.634 67.2001 52.1756C54.5389 55.0643 44.229 63.9106 39.1645 75.4651C39.7071 75.104 40.6115 74.9235 42.4203 74.7429C47.3039 64.8133 56.5285 57.2307 67.7427 54.7032C70.275 54.1616 73.169 53.8005 75.8821 53.8005H84.9258C103.375 53.8005 118.749 66.9798 121.643 85.0336C122.005 86.839 122.186 88.8249 122.186 90.8108V148.222H38.9836V132.335C37.5366 132.335 36.8131 132.154 36.2705 131.974V150.93H125.442V91.1719C125.442 89.0054 125.261 86.839 124.899 84.8531Z" fill="#092E56"/>
<path d="M125.442 144.972V151.291H4.25575C2.447 151.291 1 149.847 1 148.222C1 146.417 2.447 144.972 4.25575 144.972H125.442Z" fill="#A51C30"/>
<path d="M36.2709 133.237V145.153H4.4369C2.62815 145.153 1.18115 146.597 1.18115 148.402C1.18115 150.208 2.62815 151.472 4.4369 151.472H81.6704H168.671V151.291H212.081V95.5047C212.081 83.2281 207.017 72.2153 199.058 64.2716C193.089 58.3138 185.493 54.1614 176.991 52.3561C175.364 51.995 173.555 51.8144 171.927 51.6339C170.48 51.4534 169.214 51.4534 167.767 51.4534C166.682 51.4534 165.596 51.4534 164.33 51.6339H87.8202C86.9158 51.6339 86.0114 51.4534 85.1071 51.4534H76.0633C72.9885 51.4534 70.0945 51.8144 67.2005 52.3561C55.2627 55.0641 45.3146 63.0078 40.0692 73.8401" stroke="#182052" stroke-miterlimit="10" stroke-linecap="round" stroke-linejoin="round"/>
<path d="M110.791 125.835C110.791 129.626 107.716 132.695 103.918 132.695C33.0149 132.695 37.5368 133.056 35.1854 131.612C33.1958 130.348 31.9297 128.182 31.9297 125.835C36.0898 78.7145 35.3663 79.2561 38.2603 76.548C40.9734 74.201 37.1751 74.9232 107.716 74.9232C109.887 74.9232 111.876 76.0064 113.142 77.4507C115.494 80.5198 114.951 79.4366 110.791 125.835Z" fill="white"/>
<path d="M113.866 78.5339C113.505 78.895 113.143 79.0756 112.781 79.4366C78.0532 108.864 78.7766 109.406 73.7122 109.406C68.4668 109.406 68.6477 108.864 44.5913 85.936" stroke="#182052" stroke-miterlimit="10" stroke-linecap="round" stroke-linejoin="round"/>
<path d="M110.791 125.835C110.791 129.626 107.716 132.695 103.918 132.695C33.0149 132.695 37.5368 133.056 35.1854 131.612C33.1958 130.348 31.9297 128.182 31.9297 125.835C36.0898 78.7145 35.3663 79.2561 38.2603 76.548C40.9734 74.201 37.1751 74.9232 107.716 74.9232C109.887 74.9232 111.876 76.0064 113.142 77.4507C115.494 80.5198 114.951 79.4366 110.791 125.835Z" stroke="#182052" stroke-miterlimit="10" stroke-linecap="round" stroke-linejoin="round"/>
<path d="M27.5893 88.4635H4.07556C2.99031 88.4635 2.08594 87.5609 2.08594 86.4776C2.08594 85.3944 2.99031 84.4917 4.07556 84.4917H27.5893C28.6745 84.4917 29.5789 85.3944 29.5789 86.4776C29.5789 87.5609 28.6745 88.4635 27.5893 88.4635Z" fill="#A51C30"/>
<path d="M26.5045 99.6569H12.9388C11.8536 99.6569 10.9492 98.7542 10.9492 97.671C10.9492 96.5877 11.8536 95.6851 12.9388 95.6851H26.5045C27.5897 95.6851 28.4941 96.5877 28.4941 97.671C28.4941 98.7542 27.5897 99.6569 26.5045 99.6569Z" fill="#A51C30"/>
<path d="M25.2368 110.309H17.64C16.5548 110.309 15.6504 109.406 15.6504 108.323C15.6504 107.239 16.5548 106.337 17.64 106.337H25.4176C26.5029 106.337 27.4073 107.239 27.4073 108.323C27.4073 109.406 26.5029 110.309 25.2368 110.309Z" fill="#A51C30"/>
<path opacity="0.1" d="M100.481 109.767H92.3421C91.7995 109.767 91.4377 110.128 91.4377 110.67L91.2569 111.753C89.2672 112.836 88.0011 112.114 86.3732 111.392C84.7454 110.67 82.7557 109.767 80.7661 111.934C80.2235 112.475 80.4044 113.197 80.947 113.739C81.4896 114.281 82.2131 114.1 82.7557 113.558C83.2984 112.836 83.6601 112.836 85.288 113.739C86.3732 114.281 87.6394 114.822 89.2672 114.822C89.8099 114.822 90.3525 114.822 90.8951 114.642L90.7142 116.628C89.2672 117.169 88.0011 116.628 86.735 115.905C85.1071 115.183 83.1175 114.281 81.3087 116.447C80.7661 116.989 80.947 117.711 81.4896 118.252C82.0322 118.794 82.7557 118.613 83.2984 118.072C83.841 117.53 84.2027 117.53 85.8306 118.252C86.9159 118.794 88.182 119.336 89.8099 119.336C90.1716 119.336 90.3525 119.336 90.7142 119.336C90.8951 119.697 91.2569 120.058 91.6186 120.058H99.758C100.301 120.058 100.662 119.697 100.662 119.155L101.748 111.031C101.567 110.309 101.205 109.767 100.481 109.767ZM98.4918 117.169C98.4918 117.35 98.311 117.711 97.9492 117.711H93.97H93.4274C93.0656 117.711 92.8847 117.35 92.8847 117.169L93.0656 115.725L93.2465 113.739L93.4274 112.836C93.4274 112.656 93.6082 112.295 93.97 112.295H98.4918C98.8536 112.295 99.0345 112.656 99.0345 112.836L98.4918 117.169Z" fill="#9A0937"/>
<path d="M122.187 92.0745V144.972H49.8369" stroke="#182052" stroke-miterlimit="10" stroke-linecap="round" stroke-linejoin="round"/>
<path d="M128.518 152.555V194.801" stroke="#002349" stroke-miterlimit="10" stroke-linecap="round" stroke-linejoin="round"/>
<path d="M155.287 164.109V152.555" stroke="#002349" stroke-miterlimit="10" stroke-linecap="round" stroke-linejoin="round"/>
</svg>
