<svg width="109" height="50" fill="none" xmlns="http://www.w3.org/2000/svg"><rect width="108.182" height="49.773" rx="7" fill="url(#paint0_linear_417_3125)"/><path d="M60.458 12.595c-.74 0-1.339.634-1.339 1.416 0 .783.6 1.417 1.339 1.417h1.631l.41 1.73.013.06 1.817 7.69-1.195 1.264c-1.686 1.784-.492 4.835 1.893 4.835h11.491c.74 0 1.339-.634 1.339-1.416 0-.783-.6-1.417-1.339-1.417h-11.49l1.337-1.416h8.815c.507 0 .97-.303 1.197-.783l4.015-8.498c.208-.439.186-.96-.058-1.378a1.324 1.324 0 00-1.139-.671H64.85l-.416-1.76c-.15-.63-.685-1.073-1.299-1.073h-2.676zm17.399 21.953c0 1.173-.899 2.124-2.008 2.124s-2.007-.95-2.007-2.124c0-1.174.898-2.125 2.007-2.125 1.11 0 2.008.951 2.008 2.125zm-12.715 2.124c1.109 0 2.008-.95 2.008-2.124 0-1.174-.9-2.125-2.008-2.125-1.109 0-2.008.951-2.008 2.125 0 1.173.9 2.124 2.008 2.124zM30.905 12.095H27.71v3.24h-1.275v-3.24h-3.18V10.94h3.18V7.685h1.275v3.255h3.195v1.155z" fill="#fff"/><defs><linearGradient id="paint0_linear_417_3125" x1="0" y1="24.886" x2="171.536" y2="45.208" gradientUnits="userSpaceOnUse"><stop stop-color="#E21633"/><stop offset="1" stop-color="#E21633" stop-opacity="0"/></linearGradient></defs></svg>