<svg width="26" height="24" fill="none" xmlns="http://www.w3.org/2000/svg"><g clip-path="url(#clip0_67_10)"><path d="M4.669 20.938c-.102-.044-.175-.093-.057-.192a3.33 3.33 0 01.232-.154c.74-.467 1.435-.979 1.893-1.732.384-.626.322-.995-.158-1.456C3.9 14.798 2.725 11.68 3.313 7.998c.333-2.078 1.31-3.875 2.734-5.436.86-.946 1.882-1.71 3-2.348.068-.038.165-.05.176-.148C9.2.01 9.16.027 9.127.027 7.223.027 5.319-.01 3.42.038 1.6.093.03 1.462.036 3.425c.01 5.733 0 11.466 0 17.205a3.332 3.332 0 003.22 3.337c1.543.06 3.085.011 4.633.006.113.005.226.01.34.01h8.158c2.034 0 4.068.011 6.102 0 1.888 0 3.419-1.484 3.419-3.314V17.42c0-.077.028-.16-.023-.242-.101.006-.141.088-.198.143a12.53 12.53 0 01-3.808 2.545c-3.475 1.49-7.012 1.594-10.6.396a1.72 1.72 0 00-.971-.044c-.475.115-.944.253-1.413.39-1.379.418-2.785.605-4.226.33zm4.096-9.262c.096-.121.147-.193.204-.264.74-.913 1.48-1.825 2.22-2.743.215-.264.43-.533.565-.852.158-.363-.011-.704-.395-.836a1.55 1.55 0 00-.531-.06 276.903 276.903 0 00-3.023 0c-.142 0-.283.016-.418.05a.578.578 0 00-.43.703.596.596 0 00.44.423c.136.033.278.05.419.044.61.006 1.226 0 1.836.006.068 0 .153-.044.204.055-.051.065-.102.131-.153.192-.876 1.077-1.746 2.16-2.622 3.238-.214.269-.327.566-.17.896.16.33.481.39.809.412.26.016.525.005.79.005.916 0 1.826.006 2.741-.005.486-.006.746-.291.695-.731-.04-.346-.282-.528-.734-.533-.797-.006-1.594 0-2.447 0zm6.554-2.892c-.706-.599-1.486-.637-2.248-.198-.927.528-1.266 1.391-1.153 2.391.107.935.526 1.7 1.531 2.012.627.198 1.21.127 1.723-.28.136-.104.176-.082.272.033.186.23.508.319.79.214a.645.645 0 00.47-.62c.005-1.1.011-2.2 0-3.299-.006-.44-.43-.72-.87-.632-.243.05-.379.209-.515.38zm3.916 2.04c-.023 1.374 1.147 2.413 2.616 2.27 1.35-.132 2.226-1.116 2.181-2.507-.045-1.374-1.096-2.314-2.537-2.27-1.35.038-2.305 1.094-2.26 2.507zm-.497-1.094c0-.863.005-1.72 0-2.584 0-.44-.288-.715-.718-.709-.418.005-.695.28-.7.704-.006.258 0 .51 0 .77v4.37c0 .34.214.637.497.708.39.105.79-.12.892-.5a.607.607 0 00.023-.203c.011-.852.006-1.704.006-2.556z" fill="#0B1978"/><path d="M7.884 23.978c-1.543 0-3.09.05-4.633-.006A3.34 3.34 0 01.03 20.637c0-5.734.011-11.467 0-17.206C.03 1.468 1.606.1 3.42.05 5.32 0 7.223.037 9.127.037c.034 0 .079-.016.096.039-.011.099-.113.11-.175.148-1.12.638-2.142 1.402-3 2.348-1.419 1.56-2.402 3.353-2.735 5.436-.588 3.678.593 6.8 3.266 9.405.474.468.536.83.158 1.457-.458.753-1.153 1.265-1.893 1.732-.08.044-.158.099-.237.148-.12.1-.046.149.056.193.023.05.051.093.085.137.65.56 1.266 1.16 1.904 1.732.3.269.599.55.887.83.119.104.316.137.345.335z" fill="#fff"/><path d="M7.884 23.978c-.029-.192-.226-.225-.345-.34a23 23 0 00-.887-.83c-.638-.573-1.254-1.172-1.904-1.732a.697.697 0 01-.085-.138c1.44.275 2.848.088 4.232-.324.47-.138.938-.275 1.413-.39.322-.083.66-.066.972.043 3.582 1.199 7.119 1.089 10.6-.395a12.515 12.515 0 003.808-2.54c.056-.055.096-.137.197-.143.051.077.023.16.023.242v3.216c.011 1.836-1.503 3.331-3.39 3.348h-.029c-2.034.01-4.068 0-6.102 0H8.223a3.497 3.497 0 00-.34-.017zm.881-12.302c.853 0 1.656-.006 2.452 0 .447.005.69.187.735.533.05.434-.21.726-.695.731-.915.011-1.825.005-2.74.005-.266 0-.526.011-.791-.005-.328-.016-.65-.082-.808-.412-.159-.33-.046-.627.169-.896.87-1.078 1.746-2.16 2.622-3.238a5.88 5.88 0 01.152-.192c-.056-.094-.135-.05-.203-.055-.61-.006-1.226 0-1.836-.006-.142 0-.283-.016-.419-.044a.578.578 0 01-.446-.693.586.586 0 01.435-.428c.136-.033.277-.05.418-.05a304.62 304.62 0 013.023 0c.18-.005.356.017.531.06.384.127.548.473.396.836-.136.314-.35.583-.565.852-.74.918-1.48 1.83-2.22 2.738a4.333 4.333 0 00-.21.264z" fill="#fff"/><path d="M15.32 8.784c.135-.17.276-.33.508-.374.446-.088.864.193.87.633.017 1.099.011 2.198 0 3.298a.652.652 0 01-.469.62.699.699 0 01-.79-.213c-.097-.116-.136-.138-.272-.033-.514.406-1.096.478-1.723.28-1.006-.319-1.419-1.083-1.532-2.012-.118-1.006.226-1.863 1.153-2.391.768-.445 1.548-.407 2.254.192zm-2 2.007c.01.242.09.472.237.665a.95.95 0 001.3.181c.067-.05.13-.11.186-.181.316-.418.316-1.105 0-1.523a.856.856 0 00-.673-.346c-.621-.039-1.056.428-1.05 1.204zm5.915.033c-.045-1.413.91-2.469 2.266-2.507 1.44-.044 2.491.896 2.537 2.27.045 1.391-.83 2.375-2.181 2.507-1.475.143-2.645-.896-2.622-2.27zm1.418-.132c-.011.274.074.544.243.77a.939.939 0 001.3.164c.062-.044.113-.099.164-.154.327-.417.327-1.121.005-1.539a.872.872 0 00-.672-.346c-.61-.033-1.04.418-1.04 1.105zm-1.915-.962c0 .852.005 1.704 0 2.556a.724.724 0 01-.712.725.901.901 0 01-.21-.022c-.282-.071-.496-.362-.496-.709V7.91c0-.258-.006-.511 0-.77.005-.423.282-.698.7-.698.43-.005.718.27.718.71.005.857 0 1.72 0 2.578z" fill="#fff"/><path d="M13.32 10.79c-.006-.774.429-1.242 1.044-1.209a.878.878 0 01.673.352c.316.412.316 1.105 0 1.523a.95.95 0 01-1.3.181.958.958 0 01-.186-.181 1.215 1.215 0 01-.232-.665zm7.333-.098c0-.682.43-1.138 1.04-1.105a.872.872 0 01.672.346c.322.418.322 1.127-.005 1.54a.95.95 0 01-1.306.148.714.714 0 01-.158-.16 1.228 1.228 0 01-.243-.77z" fill="#0B1978"/></g><defs><clipPath id="clip0_67_10"><path fill="#fff" d="M0 0h26v24H0z"/></clipPath></defs></svg>