<svg width="109" height="50" viewBox="0 0 109 50" fill="none" xmlns="http://www.w3.org/2000/svg">
<rect width="108.182" height="49.7727" rx="7" fill="url(#paint0_linear_417_3125)"/>
<path d="M60.4576 12.5952C59.7184 12.5952 59.1191 13.2293 59.1191 14.0115C59.1191 14.7937 59.7184 15.4277 60.4576 15.4277H62.0894L62.4983 17.1588C62.5026 17.1788 62.5073 17.1987 62.5124 17.2184L64.3289 24.9073L63.1343 26.1715C61.448 27.9559 62.6423 31.007 65.0271 31.007H76.5184C77.2576 31.007 77.8568 30.3729 77.8568 29.5907C77.8568 28.8085 77.2576 28.1744 76.5184 28.1744L65.0271 28.1744L66.3655 26.7581H75.1801C75.687 26.7581 76.1505 26.455 76.3772 25.9752L80.3924 17.4774C80.5999 17.0384 80.5777 16.517 80.3338 16.0995C80.09 15.6819 79.6592 15.4277 79.1953 15.4277H64.8486L64.4328 13.6679C64.2839 13.0375 63.7485 12.5952 63.1344 12.5952H60.4576Z" fill="white"/>
<path d="M77.8569 34.5478C77.8569 35.7211 76.9581 36.6722 75.8493 36.6722C74.7405 36.6722 73.8417 35.7211 73.8417 34.5478C73.8417 33.3745 74.7405 32.4233 75.8493 32.4233C76.9581 32.4233 77.8569 33.3745 77.8569 34.5478Z" fill="white"/>
<path d="M65.142 36.6722C66.2508 36.6722 67.1496 35.7211 67.1496 34.5478C67.1496 33.3745 66.2508 32.4233 65.142 32.4233C64.0332 32.4233 63.1344 33.3745 63.1344 34.5478C63.1344 35.7211 64.0332 36.6722 65.142 36.6722Z" fill="white"/>
<path d="M30.9047 12.095H27.7097V15.335H26.4347V12.095H23.2547V10.94H26.4347V7.685H27.7097V10.94H30.9047V12.095Z" fill="white"/>
<defs>
<linearGradient id="paint0_linear_417_3125" x1="1.28436e-06" y1="24.8864" x2="171.536" y2="45.2076" gradientUnits="userSpaceOnUse">
<stop stop-color="#E21633"/>
<stop offset="1" stop-color="#E21633" stop-opacity="0"/>
</linearGradient>
</defs>
</svg>
