<svg width="602" height="448" fill="none" xmlns="http://www.w3.org/2000/svg"><path d="M602 393.703H0v.301h602v-.301zm-60.32 19.346h-26.103v.3h26.103v-.3zm-126.697-6.24h-41.069v.3h41.069v-.3zm116.125-4.918h-53.614v.3h53.614v-.3zm-322.792 6.06h-13.413v.301h13.413v-.301zm-24.14 0h-46.222v.301h46.222v-.301zm-70.988-5.074H79.837v.301h33.351v-.301zm146.96-227.422l.542-15.798-9.717-3.174c-.397-5.399-1.3-10.725-2.588-15.871l8.235-6.06-5.599-14.837-10.185.818a93.991 93.991 0 00-8.477-13.647l5.274-8.789-10.848-11.554-9.102 4.653c-4.106-3.475-8.428-6.637-13.052-9.414l1.469-10.088-14.448-6.552-6.622 7.743a97.221 97.221 0 00-15.676-3.668l-2.456-9.895-15.869-.54-3.13 9.702c-5.454.445-10.74 1.299-15.893 2.585l-6.116-8.176-14.858 5.543.819 10.172a97.606 97.606 0 00-13.665 8.5l-8.765-5.266-11.619 10.785 4.66 9.138a92.985 92.985 0 00-9.392 13.033l-10.101-1.515-6.598 14.428 7.802 6.613c-1.638 5.037-2.902 10.292-3.672 15.654l-9.945 2.501-.542 15.798 9.752 3.175c.397 5.434 1.3 10.724 2.589 15.858l-8.236 6.06 5.599 14.837 10.186-.818a94.02 94.02 0 008.476 13.647l-5.274 8.789 10.848 11.554 9.103-4.653a97.543 97.543 0 0013.051 9.426l-1.517 10.088 14.448 6.553 6.658-7.743a97.295 97.295 0 0015.676 3.667l2.456 9.895 15.869.541 3.13-9.703c5.443-.445 10.74-1.298 15.881-2.585l6.068 8.176 14.858-5.543-.783-10.172c4.804-2.464 9.331-5.314 13.666-8.512l8.765 5.266 11.618-10.785-4.659-9.137a93.093 93.093 0 009.391-13.034l10.102 1.515 6.597-14.428-7.801-6.613c1.637-5.037 2.901-10.255 3.672-15.654l9.945-2.489zm-106.903 51.183c-34.651-1.19-61.778-30.202-60.598-64.805 1.192-34.639 30.245-61.74 64.896-60.549 34.651 1.19 61.777 30.202 60.597 64.841-1.192 34.603-30.256 61.692-64.895 60.513zm377.67-103.436l3.985-3.715-1.589-3.138a33.188 33.188 0 003.239-4.496l3.492.529 2.263-4.978-2.685-2.285c.578-1.755.999-3.57 1.264-5.386l3.432-.854.18-5.458-3.359-1.082a33.52 33.52 0 00-.879-5.47l2.83-2.105-1.927-5.11-3.503.277a33.956 33.956 0 00-2.926-4.713l1.818-3.006-3.732-3.992-3.131 1.6a34.02 34.02 0 00-4.503-3.235l.506-3.487-4.973-2.272-2.287 2.68a33.85 33.85 0 00-5.406-1.25l-.855-3.414-5.466-.193-1.096 3.367a32.721 32.721 0 00-5.478.89l-2.095-2.826-5.129 1.912.289 3.51a32.68 32.68 0 00-4.72 2.922l-3.034-1.815-3.985 3.715 1.601 3.15a32.254 32.254 0 00-3.239 4.497l-3.491-.53-2.264 4.978 2.685 2.285a32.101 32.101 0 00-1.264 5.386l-3.431.854-.181 5.459 3.359 1.082a33.94 33.94 0 00.879 5.47l-2.829 2.092 1.926 5.11 3.516-.264a33.966 33.966 0 002.926 4.713l-1.818 3.006 3.732 3.991 3.13-1.599a33.989 33.989 0 004.503 3.235l-.517 3.474 4.972 2.273 2.288-2.669c1.77.565 3.576.973 5.406 1.25l.854 3.415 5.467.192 1.095-3.367a32.679 32.679 0 005.478-.889l2.095 2.825 5.129-1.912-.288-3.51a32.326 32.326 0 004.719-2.922l3.022 1.803zm-28.438-23c-2.938-3.138-2.769-8.068.373-10.99 3.142-2.933 8.079-2.765 11.017.373a7.77 7.77 0 01-.386 11.002c-3.142 2.921-8.066 2.753-11.004-.385zM385.268 285.408l-12.45-8.584c0-.012 0-.024-.012-.024a67.528 67.528 0 00-5.008-12.949l3.19-12.505-18.06-19.309-12.714 2.32a68.218 68.218 0 00-12.582-5.867c-.012 0-.024 0-.036-.012l-7.729-12.997-26.44-.902-8.597 12.432c-.012 0-.036.012-.048.012a68.462 68.462 0 00-12.955 4.99l-12.51-3.186-19.336 18.035 2.324 12.672s0 .012-.012.012a66.802 66.802 0 00-5.876 12.613l-13.015 7.719-.903 26.415 12.461 8.596c1.228 4.545 2.878 8.886 4.997 13.01l-3.179 12.468 18.06 19.309 12.63-2.308a69.03 69.03 0 0012.703 5.879h.012l7.717 12.973 26.44.902 8.597-12.42A68.352 68.352 0 00336 359.7l12.462 3.174 19.336-18.035-2.324-12.672a66.622 66.622 0 005.876-12.625l13.015-7.718.903-26.416zm-82.414 40.146c-16.435-.565-29.281-14.344-28.715-30.719.565-16.412 14.315-29.241 30.762-28.676 16.434.565 29.281 14.296 28.715 30.72-.566 16.363-14.327 29.24-30.762 28.675zm110.779-115.147h-.084l-20.853-.709a2.502 2.502 0 01-2.095-1.239l-5.611-9.438a56.529 56.529 0 01-8.765-4.064l-9.042 1.647a2.521 2.521 0 01-2.312-.769l-14.243-15.222a2.532 2.532 0 01-.602-2.356l2.276-8.909a54.594 54.594 0 01-3.444-8.982l-9.066-6.252a2.529 2.529 0 01-1.096-2.176l.711-20.824a2.499 2.499 0 011.24-2.093l9.475-5.614c1.12-3.066 2.481-6 4.058-8.717l-1.662-9.054a2.515 2.515 0 01.771-2.308l15.255-14.224a2.541 2.541 0 012.359-.601l8.946 2.284a56.81 56.81 0 018.97-3.45l6.261-9.054c.493-.71 1.3-1.154 2.179-1.094l20.853.71a2.503 2.503 0 012.095 1.238l5.623 9.462a57.087 57.087 0 018.705 4.052l9.09-1.66a2.523 2.523 0 012.312.77l14.243 15.234c.59.637.819 1.527.602 2.356l-2.288 8.946a56.568 56.568 0 013.456 8.957l9.054 6.252a2.559 2.559 0 011.096 2.176l-.711 20.825a2.499 2.499 0 01-1.24 2.092l-9.475 5.615a54.886 54.886 0 01-4.058 8.705l1.662 9.065a2.518 2.518 0 01-.771 2.309l-15.242 14.211a2.534 2.534 0 01-2.36.601l-8.91-2.272a56.796 56.796 0 01-9.018 3.451l-6.249 9.041a2.585 2.585 0 01-2.095 1.082zm-19.372-5.735l18.072.613 5.984-8.657a2.555 2.555 0 011.433-1.01 50.834 50.834 0 009.812-3.763s.012 0 .012-.012a2.528 2.528 0 011.758-.18l8.476 2.152 13.22-12.324-1.577-8.621c-.108-.613 0-1.238.325-1.767 1.746-2.886 3.227-6.06 4.395-9.414a2.532 2.532 0 011.132-1.407l9.054-5.374.614-18.047-8.669-5.976a2.494 2.494 0 01-.963-1.286c-.024-.061-.036-.133-.061-.205a50.944 50.944 0 00-3.744-9.679 2.532 2.532 0 01-.193-1.779l2.168-8.513-12.341-13.201-8.657 1.587a2.57 2.57 0 01-1.758-.313 52.313 52.313 0 00-9.451-4.412 2.13 2.13 0 01-.53-.253 2.676 2.676 0 01-.855-.865l-5.382-9.054-18.072-.613-5.984 8.657a2.543 2.543 0 01-1.493 1.022 50.938 50.938 0 00-9.692 3.739 2.54 2.54 0 01-1.782.192l-8.524-2.164-13.22 12.324 1.577 8.621a2.487 2.487 0 01-.229 1.587 1.807 1.807 0 01-.12.204c-1.746 2.898-3.227 6.084-4.395 9.45a2.495 2.495 0 01-1.107 1.347l-9.066 5.374-.615 18.047 8.681 5.988c.494.337.855.842 1.012 1.431.939 3.463 2.191 6.745 3.744 9.763.084.168.157.36.205.541.096.409.096.829 0 1.238l-2.167 8.477 12.341 13.201 8.596-1.575c.602-.108 1.228 0 1.746.313a52.559 52.559 0 009.5 4.412 2.46 2.46 0 011.408 1.118l5.382 9.066zm11.161-22.808c-.445 0-.891-.012-1.336-.024-21.01-.722-37.505-18.372-36.795-39.34.723-20.981 18.422-37.453 39.395-36.744 21.01.722 37.505 18.372 36.795 39.341-.35 10.147-4.636 19.561-12.077 26.499-7.115 6.649-16.302 10.268-25.982 10.268zm-.048-71.046c-17.699 0-32.388 14.067-33.002 31.862-.626 18.179 13.678 33.473 31.882 34.098 8.826.301 17.23-2.85 23.683-8.873 6.441-6.012 10.162-14.176 10.463-22.965.626-18.179-13.678-33.473-31.882-34.098-.385-.024-.759-.024-1.144-.024z" fill="#EBEBEB"/><path d="M461.661 60.56l-8.632-2.32-2.324-8.62 3.383-3.379 3.564 7.383 7.393 3.558-3.384 3.379z" fill="#E0E0E0"/><path d="M462.191 54.79c1.577-1.575 1.577-4.136 0-5.699a4.023 4.023 0 00-5.695.012l4.298-6.432 5.768 2.91 1.264 6.047-5.635 3.162z" fill="#E0E0E0"/><path d="M453.402 46.927l6.333-6.325 8.633 2.321 2.324 8.62-6.333 6.325-8.633-2.32-2.324-8.621zm11.499 5.17c1.577-1.575 1.577-4.136 0-5.7a4.023 4.023 0 00-5.695.013 3.993 3.993 0 000 5.675 4.045 4.045 0 005.695.012z" fill="#F0F0F0"/><path d="M108.625 290.675l4.635-1.25 1.24-4.629-1.806-1.804-1.914 3.956-3.973 1.912 1.818 1.815z" fill="#E0E0E0"/><path d="M108.335 287.573a2.175 2.175 0 010-3.066 2.156 2.156 0 013.058.012l-2.299-3.451-3.095 1.563-.674 3.247 3.01 1.695z" fill="#E0E0E0"/><path d="M113.055 283.352l-3.395-3.39-4.636 1.238-1.24 4.629 3.395 3.391 4.636-1.239 1.24-4.629zm-6.164 2.778a2.175 2.175 0 010-3.066 2.156 2.156 0 013.058.012c.842.842.842 2.2 0 3.054-.843.829-2.216.841-3.058 0zM91.937 36.923l3.841 3.836c1 .998 2.637.998 3.648 0 1-.998 1-2.633 0-3.631l-3.84-3.836a2.582 2.582 0 00-3.636 0 2.563 2.563 0 00-.013 3.631z" fill="#F0F0F0"/><path d="M89.228 27.352c2.961-1.058 6.176.325 7.175 3.102 1 2.778-.59 5.892-3.552 6.962-2.961 1.058-6.176-.325-7.175-3.102-1-2.777.59-5.891 3.552-6.962z" fill="#E0E0E0"/><path d="M85.045 33.667l.558 1.55 11.444-4.105-.558-1.55-11.444 4.105z" fill="#F0F0F0"/><path d="M301 448c128.927 0 233.444-6.094 233.444-13.61 0-7.517-104.517-13.611-233.444-13.611S67.557 426.873 67.557 434.39C67.557 441.906 172.073 448 301 448z" fill="#F5F5F5"/><path d="M104.411 78.98c-1.204-5.29-.662-9.75 1.614-13.37 2.287-3.618 6.056-6.023 11.329-7.225 5.406-1.227 9.897-.721 13.485 1.515 3.588 2.236 5.972 5.963 7.164 11.182.867 3.787.927 7.045.205 9.762-.723 2.718-2.144 5.026-4.251 6.926-2.107 1.9-4.96 3.258-8.572 4.076-3.66.83-6.827.938-9.487.312-2.661-.625-5.033-2.02-7.092-4.208-2.071-2.188-3.54-5.17-4.395-8.97zm10.042-2.224c.746 3.27 1.89 5.495 3.431 6.637 1.541 1.155 3.359 1.491 5.466 1.01 2.155-.493 3.66-1.563 4.527-3.234s.879-4.316.06-7.947c-.698-3.054-1.818-5.146-3.371-6.276s-3.383-1.455-5.502-.974c-2.023.457-3.492 1.539-4.383 3.246-.903 1.72-.987 4.232-.228 7.538zm28.33-1.743c-.819-3.582-.277-6.817 1.613-9.69 1.891-2.874 4.901-4.773 9.018-5.711 4.708-1.07 8.585-.517 11.607 1.67 2.432 1.756 4.021 4.245 4.756 7.467.818 3.62.301 6.854-1.578 9.703-1.878 2.85-4.936 4.761-9.174 5.723-3.781.854-7.056.601-9.825-.793-3.395-1.72-5.538-4.509-6.417-8.369zm9.042-2.068c.482 2.093 1.252 3.547 2.336 4.353 1.071.805 2.263 1.07 3.539.781 1.301-.3 2.252-1.034 2.866-2.212.614-1.178.662-2.861.169-5.038-.47-2.031-1.229-3.462-2.3-4.256-1.072-.805-2.227-1.07-3.468-.781-1.312.3-2.287 1.046-2.913 2.26-.626 1.19-.699 2.825-.229 4.893zm27.066 15.559l-7.38-32.44 8.44-1.91.794 3.474c.831-1.72 1.686-2.958 2.541-3.691 1.156-.986 2.528-1.672 4.13-2.032 3.142-.71 5.851-.06 8.115 1.947 2.263 2.008 3.804 4.786 4.611 8.333.891 3.907.626 7.105-.771 9.582-1.408 2.489-3.539 4.052-6.405 4.701-1.385.313-2.709.361-3.961.157a9.486 9.486 0 01-3.552-1.407l2.553 11.218-9.115 2.068zm4.347-22.664c.421 1.863 1.131 3.15 2.119 3.871.987.722 2.083.95 3.275.674 1.047-.24 1.83-.866 2.347-1.888.518-1.022.53-2.573.061-4.63-.434-1.899-1.12-3.21-2.059-3.943-.939-.721-1.939-.962-3.01-.721-1.156.264-2.011.926-2.577 2.008-.566 1.058-.614 2.609-.156 4.629zm20.756.709l8.754-2.874c.614.974 1.3 1.623 2.07 1.924.771.3 1.71.337 2.818.084 1.216-.276 2.095-.745 2.637-1.407.433-.504.577-1.033.445-1.61-.144-.65-.602-1.07-1.361-1.275-.541-.144-1.902-.156-4.093-.048-3.251.168-5.551.156-6.875-.036-1.324-.193-2.528-.746-3.612-1.66a6.21 6.21 0 01-2.107-3.498c-.349-1.551-.205-2.982.446-4.305.65-1.322 1.697-2.44 3.154-3.354 1.457-.914 3.516-1.671 6.164-2.273 2.806-.637 4.925-.89 6.358-.769 1.432.12 2.697.541 3.792 1.226 1.096.698 2.119 1.744 3.058 3.15l-8.355 2.778c-.398-.71-.891-1.166-1.481-1.407-.819-.313-1.722-.349-2.733-.12-1.024.228-1.722.577-2.107 1.046-.386.469-.518.962-.398 1.479.133.577.53.938 1.18 1.106.662.156 1.999.132 4.034-.084 3.07-.337 5.418-.373 7.007-.108 1.601.276 2.914.877 3.949 1.827 1.035.95 1.698 2.092 1.999 3.427.313 1.358.204 2.765-.325 4.232-.53 1.467-1.59 2.777-3.179 3.944-1.589 1.154-3.913 2.08-6.947 2.777-4.298.974-7.501 1.058-9.596.252-2.095-.817-3.66-2.284-4.696-4.424zm29.402-29.746l9.885-.06.048 7.575-1.818 15.233-6.116.036-1.95-15.209-.049-7.575zm.482 25.117l9.223-.048.048 8.14-9.223.048-.048-8.14zm-78.947 78.309a.692.692 0 01-.217-.037c-5.418-2.092-8.656-4.148-10.342-6.6-1.228.24-2.589.084-3.889-.529-1.264-.602-2.48-1.648-3.347-3.15-.819.625-1.818.793-2.926.456-1.228-.384-2.492-1.406-3.552-2.897a2.807 2.807 0 01-1.866.517c-3.576-.289-8.428-7.407-8.777-14.993a.596.596 0 01.578-.625.595.595 0 01.626.577c.325 7.202 4.949 13.622 7.67 13.838.445.049.806-.096 1.119-.336-1.637-2.862-2.48-6.95-1.228-11.314 1.036-3.607 1.951-5.026 3.046-4.761 2.071.517 1.806 8.38.699 13.574-.253 1.178-.614 2.02-1.024 2.621.951 1.407 2.071 2.345 3.058 2.657.879.277 1.529.048 2.011-.421-.951-2.332-1.144-5.494.145-9.546 1.685-5.326 2.371-5.471 2.781-5.555a.782.782 0 01.77.265c1.108 1.25-.216 9.522-1.613 13.61a6.029 6.029 0 01-.674 1.395c.746 1.467 1.854 2.464 2.998 3.006.927.444 1.878.601 2.733.517a6.876 6.876 0 01-.289-.698c-.951-2.585-.494-5.567 1.421-9.113 1.276-2.357 2.311-3.451 3.262-3.451.289 0 .807.108 1.192.793 1.048 1.936.289 8.321-1.782 11.483a4.783 4.783 0 01-1.95 1.683c1.613 2.116 4.671 3.98 9.572 5.879a.605.605 0 01.349.782.589.589 0 01-.554.373zm-6.803-19.803s-.686 0-2.203 2.826c-1.746 3.222-2.179 5.879-1.36 8.127.096.277.216.541.361.806a3.603 3.603 0 001.589-1.323c1.686-2.573 2.492-7.863 1.866-9.931-.12-.433-.253-.505-.253-.505zm-8.644-5.062c-.313.589-.831 1.78-1.614 4.245-1.035 3.258-1.035 5.867-.457 7.875.036-.096.072-.205.108-.301 1.421-4.148 2.107-9.835 1.963-11.819zm-7.923-3.787c-.204.192-.782.95-1.625 3.872-1.108 3.859-.421 7.382.879 9.919.253-.517.421-1.118.542-1.684 1.24-5.915.879-11.253.204-12.107zm69.146 91.666c-1.83 0-3.769-.421-5.49-1.431a.598.598 0 11.602-1.034c4.298 2.513 9.848.758 10.992-1.07.133-.216.253-.493.181-.806-1.698.181-3.793-.264-6.177-1.767-3.058-1.912-3.299-2.477-3.287-2.934a.74.74 0 01.41-.625c1.204-.601 6.634 1.888 8.897 3.379.301.192.542.408.747.625.999-.241 1.782-.758 2.287-1.383.349-.421.59-.89.711-1.346-.085.012-.157.024-.241.024-1.927.192-3.853-.638-5.912-2.525-1.408-1.299-1.962-2.201-1.782-2.922.061-.228.253-.637.867-.781 1.662-.409 5.779 1.334 7.453 3.174.373.408.638.901.771 1.418 1.565-.733 3.226-2.392 5.201-5.133a.612.612 0 01.843-.145.61.61 0 01.144.842c-2.275 3.174-4.166 4.978-6.08 5.711-.072.842-.422 1.707-1.048 2.453-.614.733-1.505 1.358-2.624 1.695.12.541.012 1.118-.337 1.671-1.012 1.635-3.925 2.91-7.128 2.91zm-1.072-8.332c.41.3.988.697 1.818 1.214 1.638 1.022 3.095 1.491 4.335 1.587-1.999-1.238-4.612-2.332-6.153-2.801zm4.202-5.11c.073.192.337.685 1.409 1.671 1.794 1.647 3.419 2.393 4.972 2.212.133-.012.253-.036.386-.06a2.346 2.346 0 00-.518-.998c-1.698-1.839-5.43-3.018-6.249-2.825z" fill="#263238"/><path d="M216.648 201.595l-18.758 3.403-17.037-92.832-36.192 6.565-58.984 104.602 6.333 34.519 75.659-13.718 5.177 28.23 36.193-6.564-5.178-28.231 18.759-3.403-5.972-32.571zm-94.936 17.23l31.256-54.79 8.717 47.54-39.973 7.25zm246.025-112.971c-.698-6.409-1.986-12.108-3.852-17.098-1.867-4.977-4.672-9.87-8.416-14.656-3.745-4.785-8.85-8.945-15.291-12.468-6.454-3.523-14.966-5.976-25.549-7.346-22.021-2.862-39.19 1.034-51.507 11.71-12.317 10.677-20.42 31.117-24.321 61.331-1.589 12.288-1.974 23.65-1.18 34.074.795 10.436 2.721 18.817 5.755 25.165 4.154 8.921 10.03 16.039 17.639 21.365 7.597 5.327 18.012 8.849 31.244 10.569 23.598 3.066 41.08-1.455 52.458-13.575 11.378-12.119 18.927-32.595 22.647-61.439 1.65-12.84 1.77-25.393.373-37.632z" fill="#C00404"/><path d="M303.131 206.176c-2.89-.096-5.972-.361-9.162-.77-11.017-1.431-19.553-4.22-25.345-8.284-5.719-4.004-10.053-9.282-13.232-16.123l-.06-.12c-2.311-4.834-3.829-11.723-4.491-20.476-.734-9.486-.361-20.043 1.108-31.381 4.298-33.328 13.172-47.24 19.866-53.034 7.802-6.758 18.325-9.811 32.183-9.343 2.841.097 5.851.35 8.934.758 8.897 1.154 15.928 3.126 20.913 5.843 4.828 2.633 8.597 5.663 11.209 9.006 2.89 3.703 5.057 7.442 6.442 11.145 1.469 3.932 2.516 8.609 3.094 13.899 1.288 11.194 1.156 22.784-.349 34.531-3.335 25.898-9.789 44.089-19.168 54.081-6.983 7.406-17.422 10.761-31.942 10.268z" fill="#263238"/><path d="M326.693 106.202l.157-4.557-2.806-.914c-.12-1.55-.373-3.09-.746-4.568l2.372-1.744-1.614-4.28-2.937.24a26.454 26.454 0 00-2.445-3.931l1.517-2.537-3.13-3.33-2.625 1.346a29.858 29.858 0 00-3.756-2.717l.421-2.91-4.166-1.888-1.902 2.237a29.389 29.389 0 00-4.515-1.058l-.71-2.85-4.575-.156-.903 2.801a28.588 28.588 0 00-4.576.746l-1.758-2.357-4.286 1.6.241 2.933a27.597 27.597 0 00-3.937 2.453l-2.528-1.515-3.348 3.114 1.349 2.633a27.83 27.83 0 00-2.709 3.751l-2.914-.433-1.902 4.16 2.251 1.9a27.073 27.073 0 00-1.059 4.509l-2.866.721-.156 4.557 2.817.914a27.19 27.19 0 00.747 4.569l-2.372 1.743 1.613 4.28 2.938-.24a26.462 26.462 0 002.444 3.932l-1.517 2.536 3.13 3.331 2.625-1.347a28.996 28.996 0 003.757 2.718l-.434 2.909 4.166 1.888 1.914-2.236c1.457.468 2.962.817 4.515 1.058l.711 2.849 4.575.156.903-2.801a28.65 28.65 0 004.575-.745l1.746 2.356 4.286-1.599-.229-2.934a27.694 27.694 0 003.938-2.452l2.528 1.515 3.347-3.115-1.348-2.633a27.783 27.783 0 002.709-3.751l2.913.433 1.903-4.16-2.252-1.9a27.92 27.92 0 001.06-4.509l2.853-.721zm-30.822 14.765c-9.994-.337-17.808-8.705-17.47-18.684.337-9.992 8.717-17.795 18.71-17.458 9.993.336 17.807 8.704 17.47 18.696-.349 9.967-8.717 17.782-18.71 17.446z" fill="#C00404"/><path opacity=".3" d="M345.692 189.86l.325-3.066-1.842-.757a18.91 18.91 0 00-.277-3.115l1.686-1.07-.855-2.969-1.999.012c-.409-.974-.879-1.9-1.445-2.778l1.144-1.635-1.938-2.405-1.843.77a17.544 17.544 0 00-2.395-2.008l.445-1.96-2.709-1.491-1.421 1.431a19.137 19.137 0 00-2.986-.95l-.337-1.972-3.07-.348-.758 1.839c-1.06.012-2.095.109-3.119.289l-1.071-1.695-2.974.865.012 1.996c-.963.409-1.89.878-2.781 1.443l-1.638-1.154-2.408 1.936.771 1.839c-.711.734-1.409 1.527-2.011 2.393l-1.938-.433-1.493 2.705 1.42 1.395c-.397.986-.71 1.972-.951 2.994l-1.974.324-.325 3.066 1.842.77a16.67 16.67 0 00.277 3.102l-1.698 1.07.867 2.97h1.998c.41.961.879 1.887 1.445 2.765l-1.156 1.635 1.927 2.417 1.854-.782a17.421 17.421 0 002.396 2.008l-.446 1.96 2.709 1.491 1.421-1.419c.975.397 1.975.697 2.986.938l.337 1.972 3.07.348.759-1.851a19.203 19.203 0 003.118-.289l1.072 1.696 2.962-.866v-1.996c.963-.409 1.89-.878 2.781-1.443l1.625 1.154 2.42-1.923-.782-1.84a18.464 18.464 0 002.022-2.393l1.939.433 1.493-2.705-1.421-1.395a20.9 20.9 0 00.939-2.981l1.999-.337zm-15.496-1.19c-1.432 2.597-4.695 3.559-7.296 2.128a5.37 5.37 0 01-2.119-7.286 5.37 5.37 0 017.284-2.116 5.358 5.358 0 012.131 7.274z" fill="#C00404"/><path d="M362.753 137.908l-3.588-2.477v-.012a18.833 18.833 0 00-1.445-3.727l.915-3.607-5.201-5.567-3.66.674a19.929 19.929 0 00-3.624-1.696h-.012l-2.228-3.751-7.621-.265-2.48 3.583h-.012a19.21 19.21 0 00-3.733 1.443l-3.612-.914-5.574 5.194.674 3.656a19.986 19.986 0 00-1.698 3.631l-3.756 2.224-.265 7.611 3.588 2.476a18.608 18.608 0 001.445 3.752l-.915 3.595 5.201 5.567 3.636-.662a20.264 20.264 0 003.66 1.696l2.228 3.739 7.621.264 2.48-3.583a19.496 19.496 0 003.769-1.442l3.588.913 5.574-5.194-.674-3.655a19.724 19.724 0 001.698-3.643l3.756-2.224.265-7.599zm-23.755 11.566c-4.744-.156-8.44-4.136-8.284-8.849.157-4.737 4.13-8.428 8.862-8.272a8.566 8.566 0 11-.578 17.121z" fill="#fff"/><path d="M388.94 77.154l.627-1.515a8.176 8.176 0 001.264-.818l1.396.049 1.638-2.345-.53-1.287a7.37 7.37 0 00.337-1.466l1.204-1.107-.506-2.813-1.517-.625a7.17 7.17 0 00-.818-1.25l.048-1.395-2.348-1.636-1.288.53a6.852 6.852 0 00-1.469-.337l-1.108-1.203-2.817.505-.626 1.515a6.871 6.871 0 00-1.264.818l-1.397-.048-1.637 2.344.529 1.287c-.156.48-.277.962-.337 1.479l-1.204 1.106.506 2.813 1.517.626c.229.457.518.877.831 1.262l-.049 1.383 2.348 1.635 1.289-.53a6.85 6.85 0 001.468.338l1.108 1.202 2.805-.517zm-6.128-7.803a3.21 3.21 0 012.601-3.727 3.213 3.213 0 111.131 6.324c-1.733.324-3.419-.842-3.732-2.597zm-26.898-.169l-.915-.77c1.601-1.887 3.865-4.28 7.236-6.047l.554 1.07c-3.6 1.864-5.9 4.581-6.875 5.747zm9.608-6.84l-.469-1.106c4.551-1.948 9.307-2.706 14.135-2.26l-.109 1.201c-4.635-.444-9.186.289-13.557 2.165zm-2.276 8.318l-.999-.672c2.468-3.632 7.357-6.782 11.884-7.683l.228 1.178c-4.226.842-8.801 3.787-11.113 7.178z" fill="#C00404"/><path d="M283.349 186.362a.61.61 0 01-.434-.181l-2.528-2.597a21.278 21.278 0 01-3.793-.709l-3.937 1.731a.614.614 0 01-.578-.048l-6.598-4.364a.569.569 0 01-.264-.505l.06-4.28a20.697 20.697 0 01-2.131-3.223l-3.384-1.31a.588.588 0 01-.373-.445l-1.577-7.743a.62.62 0 01.169-.553l2.6-2.525a22.5 22.5 0 01.699-3.787l-1.734-3.92a.611.611 0 01.048-.577l4.37-6.589a.545.545 0 01.506-.264l4.286.06a20.968 20.968 0 013.227-2.116l1.312-3.379a.59.59 0 01.446-.373l7.754-1.575a.623.623 0 01.554.169l2.516 2.597c1.276.12 2.552.36 3.792.697l3.926-1.731a.611.611 0 01.577.048l6.598 4.364a.568.568 0 01.265.505l-.06 4.293c.807.997 1.517 2.08 2.119 3.21l3.383 1.31a.59.59 0 01.374.445l1.577 7.743a.62.62 0 01-.169.553l-2.6 2.525a21.551 21.551 0 01-.711 3.775l1.734 3.932a.614.614 0 01-.048.577l-4.371 6.577c-.108.168-.289.252-.505.264l-4.287-.06a21.584 21.584 0 01-3.226 2.116l-1.313 3.379a.587.587 0 01-.445.373l-7.754 1.575c.012.036-.024.036-.072.036zm-6.779-4.725c.061 0 .109.012.169.024 1.288.372 2.625.625 3.985.745a.606.606 0 01.385.18l2.457 2.525 7.103-1.442 1.276-3.283a.57.57 0 01.289-.312 19.945 19.945 0 003.396-2.225.537.537 0 01.385-.132l4.178.06 4.009-6.036-1.685-3.823a.596.596 0 01-.025-.409c.386-1.31.627-2.657.747-3.979a.602.602 0 01.181-.385l2.528-2.453-1.445-7.094-3.287-1.274a.587.587 0 01-.325-.289 19.748 19.748 0 00-2.227-3.378.53.53 0 01-.133-.397l.06-4.172-6.044-4.004-3.828 1.683a.605.605 0 01-.41.024 20.572 20.572 0 00-3.997-.745.608.608 0 01-.385-.18l-2.444-2.525-7.104 1.443-1.276 3.282a.566.566 0 01-.289.312 20.379 20.379 0 00-3.395 2.225c-.109.084-.253.156-.398.132l-4.178-.06-4.009 6.036 1.686 3.823a.6.6 0 01-.012.517 20.717 20.717 0 00-.699 3.884.606.606 0 01-.18.384l-2.529 2.453 1.445 7.094 3.287 1.274c.144.06.265.169.325.313a20.279 20.279 0 002.215 3.354.597.597 0 01.145.397l-.06 4.172 6.044 4.004 3.829-1.683a.546.546 0 01.24-.06zm5.912-3.884c-3.046 0-6.116-.866-8.837-2.657a15.928 15.928 0 01-6.863-10.172 15.864 15.864 0 012.348-12.035c4.9-7.358 14.869-9.39 22.237-4.509 7.369 4.882 9.392 14.849 4.503 22.207-3.07 4.653-8.175 7.166-13.388 7.166zm-12.341-24.203a14.662 14.662 0 00-2.167 11.134 14.746 14.746 0 006.345 9.402c6.827 4.509 16.049 2.645 20.564-4.16 4.515-6.805 2.649-16.027-4.166-20.548-6.826-4.509-16.049-2.633-20.576 4.172z" fill="#fff"/><path d="M512.699 212.452l-18.891-2.549 12.498-93.553-36.457-4.917-88.434 81.313-4.647 34.784 76.201 10.267-3.805 28.448 36.457 4.917 3.805-28.447 18.891 2.549 4.382-32.812zm-95.621-12.889l46.667-42.478-6.406 47.901-40.261-5.423z" fill="#C00404"/><path d="M267.829 300.45c1.674-26.932-1.409-75.903 49.292-69.422 54.348 6.949 38.793 70.408 38.793 70.408l-88.085-.986z" fill="#263238"/><path d="M302.818 284.268c12.222 0 22.13-9.894 22.13-22.099s-9.908-22.099-22.13-22.099-22.13 9.894-22.13 22.099 9.908 22.099 22.13 22.099z" fill="#fff"/><path d="M305.731 240.106c-10.475-1.791-21.684 5.928-22.792 13.743l41.55 3.811c-1.468-8.909-10.45-16.135-18.758-17.554z" fill="#263238"/><path d="M319.758 261.616c-.301 5.771-3.444 10.304-7.044 10.123-3.588-.18-6.26-5.014-5.959-10.797.301-5.771 3.443-10.304 7.043-10.123 3.576.192 6.249 5.025 5.96 10.797z" fill="#263238"/><path d="M302.818 285.458c-12.859 0-23.334-10.448-23.334-23.301 0-12.841 10.463-23.302 23.334-23.302 12.859 0 23.333 10.449 23.333 23.302s-10.462 23.301-23.333 23.301zm0-44.186c-11.534 0-20.926 9.366-20.926 20.897 0 11.53 9.38 20.896 20.926 20.896 11.534 0 20.925-9.366 20.925-20.896 0-11.531-9.391-20.897-20.925-20.897z" fill="#C00404"/><path opacity=".3" d="M349.75 299.765c-.049 0-.097 0-.145-.012a.596.596 0 01-.445-.721c.036-.156 3.877-16.46-.109-32.944a.588.588 0 01.446-.721c.313-.072.65.12.722.445 4.058 16.772.145 33.34.108 33.508a.592.592 0 01-.577.445zm-3.36-42.694a.626.626 0 01-.554-.349c-1.553-3.379-3.467-6.469-5.707-9.21a.606.606 0 01.085-.842.596.596 0 01.843.085 43.877 43.877 0 015.875 9.462.592.592 0 01-.301.793.535.535 0 01-.241.061z" fill="#fff"/><path d="M154.991 426.791h-.446c-3.323-.096-5.947-2.861-5.851-6.18.096-3.318 2.829-5.879 6.189-5.843h.12c3.48 0 11.847-4.22 29.353-31.778a6.025 6.025 0 014.214-2.729 5.996 5.996 0 014.816 1.419c21.6 18.804 44.488 30.515 44.717 30.635a6.006 6.006 0 012.637 8.08c-1.505 2.957-5.129 4.148-8.091 2.645-.915-.457-20.914-10.677-41.899-27.834-14.665 22.015-25.549 31.585-35.759 31.585z" fill="#263238"/><path d="M192.242 380.597a3.608 3.608 0 01-3.588-4.111c.855-5.988-.204-28.412-7.79-45.845a3.623 3.623 0 011.277-4.425c16.494-11.218 51.627-12.564 53.108-12.612 1.987-.048 3.66 1.491 3.732 3.474a3.605 3.605 0 01-3.479 3.728c-.325.012-31.039 1.19-46.824 9.859 6.719 17.361 8.248 39.003 7.128 46.83a3.6 3.6 0 01-3.564 3.102z" fill="#263238"/><path d="M198.31 375.92c-2.408-5.663-13.232-5.013-19.589-.168-3.395 2.597-7.994 10.388-8.476 13.214-.482 2.825 1.481 5.386 4.84 5.098 4.154-.361 9.849-6.385 9.849-6.385-3.793 3.715 1.096 6.336 8.404.962 4.045-2.97 7.657-6.384 4.972-12.721z" fill="#C00404"/><path d="M405.399 302.037c-.061 0-.109-.012-.169-.024a.592.592 0 01-.409-.745c1.601-5.579 3.359-8.982 5.659-10.881-.35-1.203-.313-2.573.18-3.92.482-1.311 1.421-2.609 2.842-3.607-.699-.757-.952-1.743-.711-2.862.277-1.25 1.18-2.609 2.577-3.799a2.818 2.818 0 01-.686-1.815c-.037-3.583 6.634-9.054 14.159-10.076.325-.06.638.18.674.517a.59.59 0 01-.518.673c-7.152.974-13.148 6.144-13.123 8.874 0 .444.168.793.433 1.082 2.709-1.888 6.706-3.102 11.173-2.237 3.696.71 5.201 1.491 5.021 2.609-.325 2.104-8.199 2.549-13.473 1.912-1.192-.144-2.071-.421-2.709-.781-1.312 1.07-2.155 2.272-2.372 3.282-.193.902.096 1.527.602 1.972 2.24-1.154 5.382-1.635 9.536-.71 5.466 1.203 5.671 1.864 5.791 2.261a.801.801 0 01-.193.793c-1.155 1.215-9.523.638-13.725-.384a5.827 5.827 0 01-1.445-.542c-1.397.878-2.288 2.056-2.733 3.259-.349.962-.434 1.912-.277 2.765.217-.132.433-.252.662-.349 2.492-1.178 5.502-.985 9.211.602 2.456 1.058 3.648 1.984 3.732 2.933.024.277-.024.818-.686 1.251-1.83 1.214-8.272 1.034-11.619-.746-.794-.42-1.408-1.046-1.854-1.791-1.962 1.791-3.552 5.014-5.008 10.051a.542.542 0 01-.542.433zm6.525-11.218a3.665 3.665 0 001.469 1.467c2.721 1.443 8.067 1.78 10.066.962.409-.168.469-.3.469-.3s-.06-.674-3.01-1.936c-3.371-1.443-6.068-1.647-8.223-.625-.265.12-.518.264-.771.432zm4.022-7.899c.108.036.204.06.313.084 4.25 1.034 9.993 1.215 11.956.89-.615-.252-1.855-.673-4.383-1.226-3.335-.734-5.948-.505-7.886.252zm1.517-6.757a7.115 7.115 0 001.734.385c5.995.709 11.293-.132 12.088-.878-.205-.18-1.012-.697-4.01-1.274-3.961-.746-7.416.24-9.812 1.767zm-168.801 148.62c.795-.253.53-1.022-.361-1.022h-16.302c-31.04-3.282-52.724 1.118-39.058 2.152 13.665 1.034-.963.818-10.945 4.593-9.981 3.775 74.227 4.725 81.897 0 7.055-4.352-26.236-2.212-15.231-5.723z" fill="#263238"/><path d="M365.378 429.581l-141.831-4.701-5.888-137.33 167.489 3.739-19.77 138.292z" fill="#C00404"/><path d="M267.83 426.948a.603.603 0 01-.602-.553l-11.366-137.932a.598.598 0 01.554-.649.598.598 0 01.65.553l11.366 137.931a.598.598 0 01-.554.65h-.048z" fill="#263238"/><path d="M365.378 429.581l38.119-5.795 12.003-127.7-30.352-4.797-19.77 138.292z" fill="#C00404"/><path opacity=".2" d="M365.378 429.581l38.119-5.795 12.003-127.7-30.352-4.797-19.77 138.292z" fill="#000"/><path d="M235.658 398.404l-3.491-81.59c-.361-8.512 6.55-15.57 15.086-15.378l106.024 2.369c8.85.192 15.544 8.08 14.292 16.833l-11.751 82.227c-1.06 7.454-7.574 12.913-15.111 12.66l-90.769-3.005c-7.73-.253-13.942-6.409-14.28-14.116z" fill="#263238"/><path d="M247.121 326.48l16.399.517-.133 4.221-10.27-.325-.096 3.138 9.523.301-.132 4.039-9.524-.3-.12 3.895 10.571.337-.144 4.485-16.7-.529.626-19.779zm19.444 20.416l.627-19.778 10.197.325c1.891.06 3.335.264 4.323.625a4.657 4.657 0 012.36 1.876c.59.901.854 1.971.818 3.234-.036 1.094-.301 2.032-.794 2.813a5.45 5.45 0 01-1.999 1.876c-.53.301-1.252.541-2.179.709.722.265 1.24.529 1.565.782.217.168.53.529.951 1.07.41.541.686.962.819 1.25l2.781 5.832-6.911-.217-3.082-6.144c-.385-.793-.747-1.31-1.06-1.563a2.503 2.503 0 00-1.481-.505l-.541-.012-.253 8.032-6.141-.205zm6.526-11.566l2.577.084c.277.012.818-.06 1.625-.216a1.624 1.624 0 001.011-.589 1.82 1.82 0 00.422-1.131c.024-.637-.169-1.13-.566-1.49-.397-.361-1.156-.553-2.264-.59l-2.684-.084-.121 4.016zm15.003 12.251l.626-19.778 10.198.324c1.89.06 3.335.265 4.322.626a4.65 4.65 0 012.36 1.875c.59.902.855 1.972.819 3.234-.036 1.095-.301 2.032-.795 2.814a5.459 5.459 0 01-1.999 1.876c-.529.3-1.252.541-2.179.709.723.264 1.24.529 1.565.781.217.169.53.529.951 1.07.41.542.687.962.819 1.251l2.781 5.831-6.911-.216-3.082-6.144c-.385-.794-.746-1.311-1.059-1.563a2.5 2.5 0 00-1.481-.505l-.542-.012-.253 8.031-6.14-.204zm6.513-11.578l2.577.084c.277.012.819-.06 1.625-.217.41-.072.747-.264 1.012-.589.265-.324.409-.697.421-1.13.024-.637-.168-1.13-.566-1.491-.397-.361-1.156-.553-2.263-.589l-2.685-.084-.121 4.016zm14.003 2.345c.108-3.235 1.083-5.711 2.937-7.455 1.855-1.743 4.395-2.561 7.61-2.465 3.299.109 5.803 1.071 7.537 2.898 1.722 1.828 2.54 4.328 2.444 7.515-.072 2.308-.53 4.196-1.349 5.651a8.277 8.277 0 01-3.491 3.342c-1.505.782-3.347 1.13-5.551 1.058-2.239-.072-4.069-.481-5.514-1.238-1.445-.758-2.589-1.924-3.455-3.487-.855-1.575-1.253-3.511-1.168-5.819zm6.116.216c-.06 1.996.265 3.439.975 4.341.711.901 1.71 1.358 2.986 1.406 1.313.036 2.348-.348 3.094-1.19.747-.83 1.156-2.357 1.229-4.569.06-1.864-.277-3.234-1-4.112-.722-.878-1.734-1.346-3.022-1.383-1.24-.036-2.239.361-3.01 1.215-.77.841-1.192 2.272-1.252 4.292zm17.469 10.412l.626-19.779 10.198.325c1.891.06 3.335.264 4.323.625a4.65 4.65 0 012.359 1.876c.59.901.855 1.972.819 3.234-.036 1.094-.301 2.032-.794 2.813a5.45 5.45 0 01-1.999 1.876c-.53.301-1.252.541-2.179.709.722.265 1.24.53 1.565.782.217.168.53.529.951 1.07.409.541.686.962.819 1.251l2.781 5.831-6.911-.217-3.082-6.144c-.385-.793-.747-1.31-1.06-1.563a2.503 2.503 0 00-1.481-.505l-.541-.012-.253 8.032-6.141-.204zm6.514-11.567l2.576.084c.277.012.819-.06 1.626-.216a1.627 1.627 0 001.011-.589c.265-.325.41-.698.422-1.13.024-.638-.169-1.131-.566-1.491-.398-.361-1.156-.553-2.264-.589l-2.685-.085-.12 4.016zm3.227 45.184c-.433 0-.855-.168-1.168-.517l-10.306-11.265-11.125 10.147c-.65.589-1.65.541-2.227-.096l-10.307-11.266-11.125 10.148a1.579 1.579 0 01-2.227-.096l-10.306-11.266-11.125 10.148a1.541 1.541 0 01-1.132.408 1.577 1.577 0 01-1.096-.517l-10.306-11.265-11.125 10.147a1.58 1.58 0 01-2.227-.096 1.574 1.574 0 01.096-2.224l12.293-11.218a1.58 1.58 0 012.227.096l10.307 11.266 11.124-10.148a1.537 1.537 0 011.132-.408c.422.024.819.204 1.096.517l10.306 11.265 11.125-10.147a1.58 1.58 0 012.227.096l10.307 11.266 11.125-10.148a1.58 1.58 0 012.227.096l11.378 12.432c.59.65.542 1.647-.096 2.225-.313.276-.699.42-1.072.42z" fill="#fff"/><path d="M151.403 432.49l-7.537-3.583-6.719-32.667 3.649-4.004 10.607 40.254z" fill="#C00404"/><path d="M151.402 432.49l9.993-5.831-8.56-26.908-12.04-7.515 10.607 40.254z" fill="#C00404"/><path opacity=".2" d="M151.402 432.49l9.993-5.831-8.56-26.908-12.04-7.515 10.607 40.254z" fill="#000"/><path d="M315.388 438.43c-.289 0-.566 0-.831-.012a6.013 6.013 0 11.337-12.024c9.271.301 28.908-5.386 40.118-16.255a6.02 6.02 0 012.468-1.443c19.011-5.699 26.078 5.807 26.379 6.3l-10.366 6.12s.036.084.144.216c-.12-.156-2.805-3.655-11.377-1.49-14.099 12.84-35.699 18.588-46.872 18.588z" fill="#263238"/><path d="M314.713 446.426l-21.925-1.383-1.722-40.362 29.462 1.094-5.815 40.651z" fill="#C00404"/><path d="M314.713 446.425l5.129-5.098 3.178-25.164-2.492-10.389-5.815 40.651z" fill="#C00404"/><path opacity=".2" d="M314.713 446.425l5.129-5.098 3.178-25.164-2.492-10.389-5.815 40.651z" fill="#000"/><path d="M441.759 431.131c-.759 0-1.529-.24-2.179-.733-12.51-9.499-29.438-26.367-35.928-42.635a3.174 3.174 0 01-.204-.733c-3.167-18.793-6.189-58.361-6.321-60.033-.157-1.983 1.336-3.715 3.323-3.871a3.619 3.619 0 013.876 3.318c.037.409 3.083 40.363 6.177 58.999 6.477 15.822 24.032 32.066 33.447 39.208a3.588 3.588 0 01.686 5.049 3.558 3.558 0 01-2.877 1.431zm16.7 1.829c-2.794 0-5.96-1.263-9.404-3.752a3.608 3.608 0 01-.806-5.037 3.62 3.62 0 015.045-.806c2.985 2.152 4.611 2.393 5.177 2.393a3.605 3.605 0 013.612 3.607 3.629 3.629 0 01-3.624 3.595z" fill="#263238"/><path d="M450.055 429.099c3.865-11.47 19.709-9.198 25.163-7.502 5.455 1.707 10.367 3.847 13.329 5.771 2.95 1.924 2.998 5.158-.939 6.997-4.865 2.273-17.049.253-17.049.253 6.309 2.753-.012 7.178-11.089 2.837-3.588-1.406-10.776-4.16-9.415-8.356z" fill="#C00404"/><path d="M411.599 331.939c-1.432 9.739-9.511 16.929-16.085 15.955-6.574-.962-6.839-9.667-5.406-19.406 1.433-9.739 4.033-16.832 10.607-15.87 6.562.973 12.317 9.582 10.884 19.321zm-158.904-38.883a.987.987 0 10.002-1.974.987.987 0 00-.002 1.974zm10.03 6.12a.992.992 0 01-.988.986.99.99 0 01-.987-.986.99.99 0 01.987-.986c.542 0 .988.433.988.986zm1.095 116.505a.99.99 0 01-.987.986.99.99 0 01-.987-.986.99.99 0 01.987-.986c.554 0 .987.445.987.986zm9.054 7.094a.99.99 0 01-.987.986.992.992 0 01-.988-.986c0-.541.446-.986.988-.986a.99.99 0 01.987.986zM99.342 434.606c-2.866 0-6.743-1.731-8.826-4.749a.602.602 0 01.157-.842.603.603 0 01.843.157c2.251 3.234 7.2 4.965 9.403 3.943.229-.108.421-.24.566-.409-1.963-.901-3.757-2.681-4.25-5.386-.277-1.527-.494-3.583.77-3.872 1.722-.384 3.985 3.788 4.852 6.95.157.589.217 1.13.157 1.611.758.204 1.505.265 2.155.168.518-.072 1.264-.288 1.65-.901-1.457-.986-2.445-2.73-2.77-5.038-.469-3.283-.12-3.86.253-4.136a.82.82 0 01.831-.096c1.288.553 2.853 5.206 3.142 7.851.036.288.036.565 0 .829a4.7 4.7 0 001.626.313c1.047.06 2.071-.276 2.901-.757a3.681 3.681 0 01-.481-.361c-1.252-1.07-1.758-2.765-1.541-5.206.168-1.888.59-2.91 1.348-3.234.265-.121.807-.229 1.457.288 1.3 1.034 2.516 4.328 2.083 6.685-.096.493-.301.95-.602 1.383 2.203.384 5.322-.241 7.994-.902a.607.607 0 11.289 1.178c-3.262.806-6.778 1.455-9.258.746-1.108.877-2.661 1.406-4.214 1.394a5.832 5.832 0 01-1.975-.372c-.469.805-1.36 1.346-2.552 1.527-.795.12-1.746.048-2.697-.229a2.723 2.723 0 01-1.216 1.07c-.602.265-1.313.397-2.095.397zm-1.036-9.955c-.072.18-.192.793.097 2.453.397 2.212 1.83 3.679 3.419 4.46a4.046 4.046 0 00-.145-.854c-.939-3.438-2.745-5.807-3.37-6.059zm6.707-1.046c-.013.457.036 1.214.216 2.477.241 1.719.879 3.029 1.83 3.871-.289-2.417-1.36-5.206-2.046-6.348zm7.573-1.046s-.458.228-.626 2.236c-.181 2.02.192 3.391 1.119 4.184.217.18.458.337.723.457.337-.373.578-.794.65-1.238.325-1.744-.506-4.293-1.445-5.327-.229-.264-.385-.312-.421-.312zm162.974 21.136l3.263-5.651-3.263-5.65h-3.492l1.975 5.65-1.975 5.651h3.492z" fill="#263238"/><path d="M272.297 440.99a2.952 2.952 0 01-2.95-2.945 2.942 2.942 0 012.95-2.934l-5.551-1.106-1.469 4.473 2.481 3.775 4.539-1.263z" fill="#263238"/><path d="M272.778 432.394h-6.538l-3.262 5.65 3.262 5.651h6.538l3.263-5.651-3.263-5.65zm-3.263 8.596a2.953 2.953 0 01-2.95-2.946 2.942 2.942 0 012.95-2.933 2.931 2.931 0 012.938 2.933 2.942 2.942 0 01-2.938 2.946zm233.624-8.981l-2.42-4.196 2.42-4.196h2.588l-1.456 4.196 1.456 4.196h-2.588z" fill="#C00404"/><path d="M505.559 430.001a2.198 2.198 0 002.191-2.188 2.187 2.187 0 00-2.191-2.176l4.117-.818 1.096 3.319-1.842 2.801-3.371-.938z" fill="#C00404"/><path d="M505.21 423.617h4.852l2.42 4.196-2.42 4.196h-4.852l-2.42-4.196 2.42-4.196zm2.42 6.385a2.198 2.198 0 002.191-2.189 2.187 2.187 0 00-2.191-2.176 2.177 2.177 0 00-2.179 2.176c0 1.203.975 2.189 2.179 2.189zm-94.718 7.585h5.442a2.578 2.578 0 002.576-2.573 2.578 2.578 0 00-2.576-2.573h-5.442a2.578 2.578 0 00-2.577 2.573 2.585 2.585 0 002.577 2.573z" fill="#263238"/><path d="M404.219 432.73c1.348-2.85 4.599-4.136 7.272-2.874 2.673 1.263 3.756 4.581 2.408 7.431-1.349 2.849-4.599 4.136-7.272 2.873-2.673-1.262-3.757-4.581-2.408-7.43z" fill="#C00404"/><path d="M405.744 440.13l1.492.703 5.187-10.984-1.492-.702-5.187 10.983z" fill="#263238"/></svg>