<svg width="219" height="204" fill="none" xmlns="http://www.w3.org/2000/svg"><path opacity=".1" d="M205.209 113.739c0 32.858-17.726 61.744-44.134 77.27 0 0-.181.181-.362.181-1.808 1.083-3.617 1.986-5.426 2.889-.904.541-1.809.902-2.713 1.263l-1.085.542h-.181c-.362.18-.905.361-1.266.542-2.713 1.263-5.607 2.166-8.501 3.069-.362.18-.905.361-1.267.361-.18 0-.361.18-.542.18-.181 0-.362 0-.362.181-.181 0-.362 0-.543.18-3.798 1.084-7.777 1.806-11.937 2.347-3.799.542-7.597.723-11.395.723-6.15 0-12.119-.542-17.907-1.806-.362 0-.723-.18-1.085-.18-1.266-.181-2.532-.542-3.799-.903l-3.798-1.083c-5.065-1.625-10.129-3.611-14.832-5.958-28.94-14.985-48.655-45.135-48.655-79.798 0-49.648 40.335-89.728 89.895-89.728 49.74 0 89.895 40.08 89.895 89.728z" fill="#9A0937"/><path d="M107.536 72.938c-8.682-7.041-13.204-18.777-11.576-29.79 1.809-12.457 10.672-14.804 15.194-12.818 3.256 1.445 5.245 5.778 3.436 9.027-3.074 5.778-14.831 3.43-17.183-6.499-.904-3.61 0-7.583 2.17-10.652 3.618-4.874 10.311-6.68 16.28-7.582a250.79 250.79 0 014.16-.542c3.255-.361 7.235-.903 11.395-1.444" stroke="#A51C30" stroke-miterlimit="10" stroke-linecap="round" stroke-linejoin="round"/><path d="M140.454 14.985l-5.607 2.527.905-9.568" fill="#420004"/><path d="M176.448 3.25l-2.532 1.444-29.302 16.43-7.596-11.194-1.267-1.986L130.325 0l41.421 2.889 4.702.36z" fill="#A51C30"/><path d="M176.449 3.25l-2.532 1.444-36.899 5.236-1.266-1.986 35.994-5.055 4.703.36z" fill="#4A0206"/><path d="M28.617 61.15a4.512 4.512 0 002.903-5.688 4.523 4.523 0 00-5.698-2.897 4.512 4.512 0 00-2.903 5.687 4.523 4.523 0 005.698 2.897zm9.87-14.727a3.068 3.068 0 001.974-3.867 3.076 3.076 0 00-3.875-1.97 3.068 3.068 0 00-1.974 3.867 3.076 3.076 0 003.875 1.97zm37.155-21.199a6.852 6.852 0 00.437-9.693 6.882 6.882 0 00-9.71-.436 6.852 6.852 0 00-.437 9.692 6.882 6.882 0 009.71.437z" fill="#F5E6EB"/><path d="M216.865 60.423a2.886 2.886 0 00.184-4.08 2.898 2.898 0 00-4.089-.184 2.885 2.885 0 00-.184 4.08 2.898 2.898 0 004.089.184z" fill="#EAEEF9"/><path d="M142.446 150.389v49.648c-.361.18-.723.18-1.085.361-4.16 1.083-8.501 1.986-12.842 2.527v-52.536h13.927z" fill="#4988FD"/><path d="M142.446 150.389v49.648c-.361.18-.723.18-1.085.361-4.16 1.083-8.501 1.986-12.842 2.527v-52.536h13.927z" fill="#fff"/><path opacity=".4" d="M155.289 150.389h-26.77v15.526h26.77v-15.526z" fill="#A51C30"/><path d="M212.083 95.505v55.606h-43.41v.18h-87V51.453h82.659c1.085-.18 2.171-.18 3.437-.18 1.447 0 2.713 0 4.16.18 1.809.181 3.437.362 5.064.723 8.502 1.805 16.098 6.138 22.067 11.915a44.328 44.328 0 0113.023 31.414z" fill="#002349"/><path d="M177.536 107.24c5.494 0 9.948-4.446 9.948-9.93s-4.454-9.93-9.948-9.93c-5.494 0-9.948 4.446-9.948 9.93s4.454 9.93 9.948 9.93z" fill="#fff"/><path d="M182.42 88.464c3.075 1.625 5.245 5.055 5.245 8.846 0 5.597-4.522 9.93-9.948 9.93a9.91 9.91 0 01-9.948-9.93c0-2.527.904-4.694 2.351-6.5" stroke="#A51C30" stroke-miterlimit="10" stroke-linecap="round" stroke-linejoin="round"/><path d="M124.9 91.172v60.119H36.271v-60.12c0-18.956 13.385-34.843 31.111-38.815 2.894-.722 5.788-.903 8.863-.903h9.044c19.896 0 36.355 14.443 39.43 33.58 0 1.806.181 3.972.181 6.139z" fill="#002349"/><path d="M175.365 49.106h5.065V96.95c0 1.444-1.086 2.528-2.533 2.528-1.447 0-2.532-1.084-2.532-2.528V58.856" fill="#fff"/><path d="M175.365 49.106h5.065V96.95c0 1.444-1.086 2.528-2.533 2.528-1.447 0-2.532-1.084-2.532-2.528V58.856" stroke="#A51C30" stroke-miterlimit="10" stroke-linecap="round" stroke-linejoin="round"/><path d="M203.941 48.384c.724.542.362 1.806-.723 1.806h-28.94V30.51h28.94c.904 0 1.447 1.083.723 1.805l-7.596 6.32a2.213 2.213 0 000 3.43l7.596 6.318z" fill="#A51C30"/><path d="M104.101 185.232c-2.532 3.791-5.607 9.93-7.416 15.165-.18.361-.362.903-.362 1.264-1.266-.18-2.532-.541-3.798-.903-1.085-2.527-1.809-5.235-1.809-5.235.724-.903 1.266-1.625 1.99-2.347 3.437-4.333 7.054-7.222 11.395-7.944z" fill="#9A0937"/><path d="M97.406 201.842c-.361 0-.723-.181-1.085-.181-1.266-.18-2.532-.541-3.798-.902-.905-.181-1.628-.542-2.532-.723-.362-.18-.724-.18-1.086-.361-.362-.18-.723-.18-1.266-.361-4.703-1.444-9.224-3.43-13.566-5.596-4.521-7.583-7.054-16.971-11.395-29.789 0-.181 0-.181-.18-.361 0 0 .361 0 1.266.361.542.361 1.447.722 2.532 1.444 2.17 1.444 5.607 3.972 10.671 8.124 6.331 5.236 11.757 12.999 15.556 19.498 1.628 2.889 3.075 5.417 4.16 7.402.362.362.542.903.723 1.445z" fill="#9A0937"/><path d="M142.445 200.036h.362c-.181 0-.543.181-.724.181 0-.181.181-.181.362-.181zm.543-.18c.181 0 .181 0 .361-.181-.18 0-.542.181-.723.181h.362z" fill="#D5DAE8"/><path d="M174.639 160.318l-.542 1.083c-2.171 3.972-9.587 17.693-13.023 29.428 0 0-.181.181-.362.181-1.809 1.083-3.618 1.985-5.426 2.888-.905.542-1.809.903-2.713 1.264l-1.086.541h-.181c-.361.181-.904.362-1.266.542-2.713 1.264-5.607 2.167-8.501 3.069-.362.181-.904.361-1.266.361-.181 0-.362.181-.543.181-.18 0-.361 0-.361.18.723-2.347 1.447-4.694 2.351-6.68 2.713-7.041 6.15-12.637 10.129-17.331 1.266-1.444 2.532-2.889 3.798-4.153 5.246-5.235 10.853-8.665 16.098-10.471.724-.361 1.809-.722 2.894-1.083z" fill="#A51C30"/><path d="M174.641 160.318l-.543 1.083c-6.873 5.958-13.204 15.346-18.811 27.442-.904 2.166-1.808 4.152-2.713 6.499l-1.085.542h-.181c-.362.181-.904.361-1.266.542.181-.361.362-.542.362-.542 1.628-3.972 3.255-7.763 4.883-11.193 4.884-9.93 10.31-17.874 16.098-23.29l3.256-1.083z" fill="#420004"/><path d="M139.732 198.592c.543-1.805 1.086-3.43 1.809-5.055 2.713-7.041 6.15-12.638 10.129-17.332 1.266-1.444 2.532-2.888 3.799-4.152 5.245-5.236 10.852-8.666 16.097-10.471l3.256-1.083-.542 1.083c-1.99 3.791-8.682 16.068-12.3 27.442" stroke="#A51C30" stroke-miterlimit="10" stroke-linecap="round" stroke-linejoin="round"/><path d="M149.679 200.217c-.361.903-.542 1.805-.904 2.708" stroke="#fff" stroke-miterlimit="10"/><path d="M72.807 191.371c-3.798-7.222-6.33-16.068-10.129-27.803 0-.181 0-.181-.18-.361 0 0 .361 0 1.266.361.542.361 1.447.722 2.532 1.444 2.17 1.444 5.607 3.972 10.671 8.124 6.331 5.236 11.757 12.999 15.556 19.498 1.628 2.889 3.075 5.416 4.16 7.402" fill="#A51C30"/><path d="M72.807 191.371c-3.798-7.222-6.33-16.068-10.129-27.803 0-.181 0-.181-.18-.361 0 0 .361 0 1.266.361.542.361 1.447.722 2.532 1.444 2.17 1.444 5.607 3.972 10.671 8.124 6.331 5.236 11.757 12.999 15.556 19.498 1.628 2.889 3.075 5.416 4.16 7.402" stroke="#9A0937" stroke-miterlimit="10" stroke-linecap="round" stroke-linejoin="round"/><path d="M89.99 199.856c-.361-.181-.723-.181-1.085-.361-.362-.181-.723-.181-1.266-.361-8.32-16.79-17.726-27.442-23.333-33.58-.542-.723-1.085-1.264-1.628-1.806 0-.18 0-.18-.18-.361 0 0 .361 0 1.266.361.542.361 1.447.722 2.532 1.444 5.788 6.5 15.374 17.513 23.694 34.664z" fill="#420004"/><path d="M124.899 84.853c-3.075-18.956-19.896-33.58-39.792-33.58h-9.044c-3.075 0-5.969.361-8.863.903-12.66 2.888-22.97 11.734-28.036 23.29.543-.362 1.447-.542 3.256-.723 4.884-9.93 14.108-17.512 25.323-20.04 2.532-.541 5.426-.903 8.14-.903h9.043c18.449 0 33.823 13.18 36.717 31.234.362 1.805.543 3.79.543 5.777v57.411H38.984v-15.887c-1.447 0-2.17-.181-2.714-.361v18.956h89.172V91.172c0-2.167-.181-4.333-.543-6.319z" fill="#092E56"/><path d="M125.442 144.972v6.319H4.256c-1.809 0-3.256-1.444-3.256-3.069a3.24 3.24 0 013.256-3.25h121.186z" fill="#A51C30"/><path d="M36.27 133.237v11.916H4.438a3.239 3.239 0 00-3.256 3.249c0 1.806 1.447 3.07 3.256 3.07H168.67v-.181h43.41V95.505c0-12.277-5.064-23.29-13.023-31.233-5.969-5.958-13.565-10.11-22.067-11.916-1.627-.361-3.436-.542-5.064-.722-1.447-.18-2.713-.18-4.16-.18-1.085 0-2.171 0-3.437.18H87.82c-.904 0-1.809-.18-2.713-.18h-9.044c-3.075 0-5.969.36-8.862.902-11.938 2.708-21.886 10.652-27.132 21.484" stroke="#182052" stroke-miterlimit="10" stroke-linecap="round" stroke-linejoin="round"/><path d="M110.791 125.835c0 3.791-3.075 6.86-6.873 6.86-70.903 0-66.381.361-68.733-1.083-1.99-1.264-3.255-3.43-3.255-5.777 4.16-47.12 3.436-46.579 6.33-49.287 2.713-2.347-1.085-1.625 69.456-1.625 2.171 0 4.16 1.083 5.426 2.528 2.352 3.069 1.809 1.986-2.351 48.384z" fill="#fff"/><path d="M113.866 78.534c-.361.361-.723.542-1.085.903-34.728 29.427-34.004 29.969-39.069 29.969-5.245 0-5.064-.542-29.12-23.47" stroke="#182052" stroke-miterlimit="10" stroke-linecap="round" stroke-linejoin="round"/><path d="M110.791 125.835c0 3.791-3.075 6.86-6.873 6.86-70.903 0-66.381.361-68.733-1.083-1.99-1.264-3.255-3.43-3.255-5.777 4.16-47.12 3.436-46.579 6.33-49.287 2.713-2.347-1.085-1.625 69.456-1.625 2.171 0 4.16 1.083 5.426 2.528 2.352 3.069 1.809 1.986-2.351 48.384z" stroke="#182052" stroke-miterlimit="10" stroke-linecap="round" stroke-linejoin="round"/><path d="M27.59 88.463H4.075a2.005 2.005 0 01-1.99-1.985c0-1.084.904-1.986 1.99-1.986h23.513c1.085 0 1.99.902 1.99 1.986a2.005 2.005 0 01-1.99 1.986zm-1.085 11.194H12.938a2.005 2.005 0 01-1.99-1.986c0-1.083.905-1.986 1.99-1.986h13.566c1.085 0 1.99.903 1.99 1.986a2.005 2.005 0 01-1.99 1.986zm-1.268 10.652H17.64a2.006 2.006 0 01-1.99-1.986c0-1.084.905-1.986 1.99-1.986h7.778c1.085 0 1.99.902 1.99 1.986 0 1.083-.905 1.986-2.171 1.986z" fill="#A51C30"/><path opacity=".1" d="M100.481 109.767h-8.139c-.543 0-.904.361-.904.903l-.181 1.083c-1.99 1.083-3.256.361-4.884-.361-1.628-.722-3.617-1.625-5.607.542-.543.541-.362 1.263.181 1.805.543.542 1.266.361 1.809-.181.542-.722.904-.722 2.532.181 1.085.542 2.351 1.083 3.98 1.083.542 0 1.085 0 1.627-.18l-.18 1.986c-1.448.541-2.714 0-3.98-.723-1.628-.722-3.617-1.624-5.426.542-.543.542-.362 1.264.18 1.805.543.542 1.267.361 1.81-.18.542-.542.904-.542 2.532.18 1.085.542 2.351 1.084 3.979 1.084h.904c.181.361.543.722.905.722h8.139c.543 0 .904-.361.904-.903l1.086-8.124c-.181-.722-.543-1.264-1.267-1.264zm-1.99 7.402c0 .181-.18.542-.542.542h-4.522c-.361 0-.542-.361-.542-.542l.18-1.444.181-1.986.181-.903c0-.18.181-.541.543-.541h4.522c.362 0 .542.361.542.541l-.542 4.333z" fill="#9A0937"/><path d="M122.187 92.075v52.897h-72.35" stroke="#182052" stroke-miterlimit="10" stroke-linecap="round" stroke-linejoin="round"/><path d="M128.518 152.555v42.246m26.769-30.692v-11.554" stroke="#002349" stroke-miterlimit="10" stroke-linecap="round" stroke-linejoin="round"/></svg>